<?xml version="1.0" standalone="no"?>
<!DOCTYPE svg PUBLIC "-//W3C//DTD SVG 1.1//EN" "http://www.w3.org/Graphics/SVG/1.1/DTD/svg11.dtd" >
<svg xmlns="http://www.w3.org/2000/svg" xmlns:xlink="http://www.w3.org/1999/xlink" version="1.1">
<metadata>
Created by FontForge 20141024 at Sat Jul 18 17:27:17 2015
 By System Administrator
Copyright (c) Volker Busse, 2005. 
</metadata>
<defs>
<font id="AmSans" horiz-adv-x="512" >
  <font-face 
    font-family="Am Sans"
    font-weight="400"
    font-stretch="normal"
    units-per-em="2048"
    panose-1="2 0 0 0 0 0 0 0 0 0"
    ascent="1638"
    descent="-410"
    x-height="851"
    cap-height="1365"
    bbox="-96 -512 2139 1939"
    underline-thickness="141"
    underline-position="-133"
    unicode-range="U+0020-25CA"
  />
<missing-glyph horiz-adv-x="1024" 
d="M128 0h768v1939h-768v-1939zM256 128v1683h512v-1683h-512z" />
    <glyph glyph-name=".notdef" horiz-adv-x="1024" 
d="M128 0h768v1939h-768v-1939zM256 128v1683h512v-1683h-512z" />
    <glyph glyph-name="NULL" horiz-adv-x="0" 
 />
    <glyph glyph-name="CR" 
 />
    <glyph glyph-name="space" unicode=" " 
 />
    <glyph glyph-name="_4" 
 />
    <glyph glyph-name="_5" 
 />
    <glyph glyph-name="exclam" unicode="!" horiz-adv-x="571" 
d="M285 182c-56 0 -101 -44 -101 -100s45 -102 101 -102c57 0 101 45 101 102c0 56 -45 100 -101 100zM210 277h149v1088h-149v-1088z" />
    <glyph glyph-name="quotedbl" unicode="&#x22;" horiz-adv-x="675" 
d="M247 816l27 549h-165l27 -549h111zM539 816l27 549h-165l27 -549h111z" />
    <glyph glyph-name="numbersign" unicode="#" horiz-adv-x="1229" 
d="M1144 965h-212l49 393l-128 18l-51 -411h-288l49 393l-128 18l-51 -411h-233v-123h218l-35 -286h-234v-123h218l-53 -420l128 -18l55 438h290l-52 -420l128 -18l54 438h226v123h-210l35 286h225v123zM787 842l-35 -286h-288l35 286h288z" />
    <glyph glyph-name="dollar" unicode="$" horiz-adv-x="1161" 
d="M668 1377v186h-120v-185c-95 -15 -171 -52 -229 -111c-61 -62 -92 -140 -92 -234c0 -105 45 -191 136 -257c47 -34 108 -67 185 -99v-552c-127 8 -208 90 -244 247l-147 -41c24 -101 69 -183 135 -244c69 -65 155 -100 256 -105v-190h120v199c101 23 183 70 244 143
s92 161 92 264c0 125 -51 222 -153 290c-44 29 -105 61 -183 96v448c65 -15 120 -61 167 -140l120 78c-69 119 -164 188 -287 207zM668 622c122 -59 183 -137 183 -232c0 -71 -25 -132 -75 -185c-27 -28 -63 -51 -108 -68v485zM548 837c-112 51 -168 116 -168 194
c0 83 38 145 113 184c14 7 32 14 55 19v-397z" />
    <glyph glyph-name="percent" unicode="%" horiz-adv-x="1465" 
d="M372 1379c-83 -1 -154 -29 -213 -84c-61 -57 -91 -127 -91 -209c0 -75 24 -141 71 -197c59 -71 136 -106 231 -106c87 0 159 28 218 84c59 57 89 128 89 214c0 71 -24 135 -72 192c-61 71 -138 107 -233 106zM371 1266c52 -1 96 -19 131 -54s53 -78 53 -130
s-18 -96 -53 -131s-79 -53 -130 -53c-53 0 -97 18 -132 53c-35 36 -52 80 -52 133c0 50 18 93 54 128c36 36 79 54 129 54zM1089 1392l-794 -1372l79 -46l795 1374zM1092 582c-83 -1 -154 -29 -213 -84c-60 -57 -90 -127 -90 -210c0 -74 24 -139 71 -196
c59 -71 136 -106 230 -106c86 0 158 28 217 85s89 128 89 213c0 71 -24 135 -71 191c-61 72 -138 108 -233 107zM1092 469c52 -1 96 -19 131 -54s53 -78 53 -130s-18 -96 -53 -131s-79 -53 -130 -53c-53 0 -97 18 -132 53c-35 36 -52 80 -52 133c0 50 18 93 54 128
c36 36 79 54 129 54z" />
    <glyph glyph-name="ampersand" unicode="&#x26;" horiz-adv-x="1303" 
d="M673 778c65 49 110 86 136 112c69 69 104 144 104 223c0 82 -28 148 -83 199s-124 76 -207 76c-86 0 -157 -27 -214 -81c-56 -53 -84 -123 -84 -208c0 -74 45 -171 135 -292c-83 -55 -139 -94 -167 -117c-123 -98 -184 -210 -184 -336c0 -95 32 -178 96 -249
c78 -87 178 -131 299 -131c132 0 278 72 439 216l148 -190h191l-232 297c71 71 129 139 174 202l-110 92c-49 -64 -101 -124 -155 -180zM550 695l302 -391c-139 -127 -255 -191 -350 -191c-58 0 -109 19 -154 58c-60 52 -90 115 -90 190c0 69 32 133 97 192
c40 36 98 79 175 129zM585 889l-61 83c-36 49 -54 94 -54 135c0 42 14 77 43 106s65 44 107 44c84 0 148 -57 148 -141c0 -48 -21 -92 -62 -133c-13 -13 -54 -45 -121 -94z" />
    <glyph glyph-name="quotesingle" unicode="'" horiz-adv-x="382" 
d="M247 816l27 549h-165l27 -549h111z" />
    <glyph glyph-name="parenleft" unicode="(" horiz-adv-x="601" 
d="M342 1502c-114 -244 -171 -556 -171 -935c0 -380 57 -692 171 -936l130 60c-103 262 -154 554 -154 876c0 321 51 613 154 875z" />
    <glyph glyph-name="parenright" unicode=")" horiz-adv-x="601" 
d="M260 -369c114 244 171 556 171 935c0 380 -57 692 -171 936l-130 -60c103 -263 154 -555 154 -876s-51 -612 -154 -875z" />
    <glyph glyph-name="asterisk" unicode="*" horiz-adv-x="1161" 
d="M523 1239l-239 89l-42 -130l245 -68l-158 -200l111 -80l141 212l141 -212l110 80l-158 200l246 68l-43 130l-239 -88l11 254h-137z" />
    <glyph glyph-name="plus" unicode="+" horiz-adv-x="1161" 
d="M98 633h419v-412h126v412h419v126h-419v412h-126v-412h-419v-126z" />
    <glyph glyph-name="comma" unicode="," horiz-adv-x="464" 
d="M218 200l-170 -472l98 -39l205 462z" />
    <glyph glyph-name="hyphen" unicode="-" horiz-adv-x="540" 
d="M0 502v-131h541v131h-541z" />
    <glyph glyph-name="hyphen" unicode="&#x2010;" horiz-adv-x="540" 
d="M0 502v-131h541v131h-541z" />
    <glyph glyph-name="period" unicode="." horiz-adv-x="465" 
d="M232 182c-55 0 -101 -44 -101 -99c0 -57 44 -103 101 -103s101 45 101 102c0 56 -45 100 -101 100z" />
    <glyph glyph-name="slash" unicode="/" horiz-adv-x="994" 
d="M864 1502l-893 -1816l118 -55l893 1816z" />
    <glyph glyph-name="zero" unicode="0" horiz-adv-x="1161" 
d="M582 1385c-48 -1 -94 -10 -139 -28c-86 -35 -158 -95 -216 -182c-90 -133 -135 -296 -135 -487c0 -255 70 -451 210 -588c83 -81 176 -122 278 -122c160 0 285 82 376 245c75 135 112 289 112 462c0 249 -69 442 -206 577c-84 83 -177 124 -280 123zM579 1246
c116 -1 205 -71 267 -208c48 -107 72 -226 72 -357c0 -156 -35 -292 -104 -408c-61 -103 -139 -154 -233 -154c-117 0 -206 69 -268 208c-48 107 -72 227 -72 359c0 158 35 294 104 409c61 101 139 152 234 151z" />
    <glyph glyph-name="one" unicode="1" horiz-adv-x="1161" 
d="M542 1223v-1223h153v1365h-259v-142h106z" />
    <glyph glyph-name="two" unicode="2" horiz-adv-x="1161" 
d="M413 142l279 319c103 118 168 197 195 237c66 99 99 193 99 284c0 117 -42 214 -125 291c-82 75 -182 112 -299 112c-77 0 -148 -17 -212 -52c-125 -67 -196 -189 -213 -366h153c7 71 22 125 45 161c51 79 126 118 227 118c69 0 129 -22 182 -65c61 -51 92 -116 92 -197
c0 -63 -28 -137 -85 -221c-27 -40 -77 -103 -151 -188l-497 -575h882v142h-572z" />
    <glyph glyph-name="three" unicode="3" horiz-adv-x="1161" 
d="M520 649c194 -5 291 -90 291 -256c0 -73 -23 -135 -68 -185c-54 -59 -121 -89 -200 -89c-41 0 -81 9 -121 28c-80 37 -127 106 -142 207h-147c5 -76 21 -138 48 -185c72 -127 191 -191 357 -191c109 0 203 33 283 99c93 77 140 180 140 310c0 159 -65 269 -195 330
c117 65 175 165 175 302c0 110 -37 199 -111 268c-71 66 -163 99 -274 99c-67 0 -129 -13 -185 -40c-105 -50 -170 -156 -195 -318h150c11 61 25 104 43 131c40 59 102 88 187 88c64 0 117 -18 158 -55c51 -45 77 -104 77 -177c0 -43 -10 -82 -29 -117
c-41 -74 -121 -113 -242 -116v-133z" />
    <glyph glyph-name="four" unicode="4" horiz-adv-x="1161" 
d="M891 492v949l-852 -1087h700v-354h152v354h168v138h-168zM739 492h-403l403 527v-527z" />
    <glyph glyph-name="five" unicode="5" horiz-adv-x="1161" 
d="M977 1223v142l-740 -1l-1 -653c98 62 186 93 264 93c89 0 164 -28 226 -84c74 -67 111 -152 111 -256c0 -87 -28 -163 -83 -228c-67 -78 -152 -117 -257 -117c-127 0 -229 63 -308 188l-121 -86c99 -162 239 -243 418 -243c131 0 243 40 336 119c110 94 165 217 165 369
c0 94 -23 180 -70 259c-85 143 -214 214 -389 214c-49 0 -100 -8 -151 -25v310z" />
    <glyph glyph-name="six" unicode="6" horiz-adv-x="1161" 
d="M687 1399l-466 -645c-75 -103 -112 -208 -112 -315c0 -119 42 -223 126 -312c93 -99 209 -149 346 -149c85 0 163 20 234 61c72 41 129 99 171 172c43 73 64 151 64 234c0 129 -47 239 -142 332c-81 79 -179 118 -295 118c-39 0 -82 -6 -127 -19l315 437zM579 760
c91 0 168 -31 229 -94c61 -62 92 -139 92 -230c0 -89 -31 -164 -94 -225c-62 -61 -137 -92 -226 -92c-91 0 -167 31 -229 92c-61 62 -92 138 -92 229c0 90 31 166 92 227c62 62 138 93 228 93z" />
    <glyph glyph-name="seven" unicode="7" horiz-adv-x="1161" 
d="M895 1223l-774 -1175l119 -80l915 1397h-1005v-142h745z" />
    <glyph glyph-name="eight" unicode="8" horiz-adv-x="1161" 
d="M378 710c-135 -69 -203 -181 -203 -334c0 -65 13 -125 40 -178c35 -69 87 -124 157 -163c67 -38 140 -57 220 -57c109 0 202 34 278 101c88 77 132 178 132 302c0 97 -30 179 -90 248c-29 33 -65 60 -108 81c114 66 171 166 171 301c0 96 -31 179 -94 250
c-73 83 -169 124 -288 124c-108 0 -197 -34 -267 -102c-77 -75 -116 -166 -116 -273c0 -132 56 -232 168 -300zM592 1246c67 -1 123 -24 168 -69c46 -45 69 -101 69 -168s-23 -124 -68 -170c-45 -45 -102 -68 -169 -68s-124 23 -169 69c-45 47 -68 104 -68 172
c0 65 23 120 70 165c47 46 102 69 167 69zM588 642c74 -1 136 -26 187 -76s77 -112 77 -185c0 -74 -25 -136 -76 -187c-51 -50 -113 -75 -187 -75c-75 0 -138 25 -189 76c-50 51 -75 114 -75 189c0 72 26 133 77 183c52 50 114 75 186 75z" />
    <glyph glyph-name="nine" unicode="9" horiz-adv-x="1161" 
d="M473 -33l465 645c76 105 114 210 114 314c0 117 -42 221 -127 311c-93 99 -209 148 -346 148c-85 0 -162 -20 -232 -60c-72 -41 -130 -99 -173 -172s-64 -150 -64 -233c0 -129 47 -239 142 -331c81 -79 180 -118 297 -118c39 0 80 6 125 18l-315 -437zM580 1246
c91 -1 167 -32 229 -93s93 -136 93 -227c0 -90 -31 -166 -93 -228c-62 -61 -138 -92 -228 -92c-91 0 -168 31 -229 93c-61 63 -92 140 -92 231c0 88 31 163 94 224c63 62 138 93 226 92z" />
    <glyph glyph-name="colon" unicode=":" horiz-adv-x="465" 
d="M232 182c-55 0 -101 -44 -101 -99c0 -57 44 -103 101 -103s101 45 101 102c0 56 -45 100 -101 100zM231 870c-55 0 -100 -44 -100 -99c0 -56 45 -102 101 -102s100 45 100 101s-45 100 -101 100z" />
    <glyph glyph-name="semicolon" unicode=";" horiz-adv-x="464" 
d="M218 200l-170 -472l98 -39l206 462zM265 870c-56 0 -101 -43 -101 -99c0 -57 44 -102 101 -102c56 0 100 45 100 101s-44 100 -100 100z" />
    <glyph glyph-name="less" unicode="&#x3c;" horiz-adv-x="1024" 
d="M955 1173l-887 -416v-133l887 -418v153l-723 331l723 330v153z" />
    <glyph glyph-name="equal" unicode="=" horiz-adv-x="1161" 
d="M98 764h964v119h-964v-119zM98 509h964v119h-964v-119z" />
    <glyph glyph-name="greater" unicode="&#x3e;" horiz-adv-x="1024" 
d="M69 206l887 417v133l-887 417v-153l723 -330l-723 -331v-153z" />
    <glyph glyph-name="question" unicode="?" horiz-adv-x="893" 
d="M592 586c-3 -43 -10 -76 -21 -99c-24 -51 -66 -76 -127 -76c-41 0 -76 14 -105 42c-28 28 -42 63 -42 104c0 74 46 124 139 151c77 22 128 39 153 50c125 56 188 154 188 295c0 85 -26 158 -79 218c-64 73 -148 110 -253 110c-85 0 -158 -25 -219 -75
c-73 -60 -110 -138 -110 -235c0 -24 3 -56 8 -95h150c-8 37 -12 66 -12 87c0 52 17 95 51 128s77 50 129 50c54 0 98 -18 133 -54c35 -35 53 -80 53 -134c0 -62 -20 -108 -60 -138c-25 -19 -53 -34 -82 -43l-88 -28c-165 -53 -248 -145 -248 -277c0 -85 27 -156 82 -211
s126 -83 211 -83c54 0 104 13 150 39c94 53 142 144 145 274h-146zM446 182c-56 0 -101 -44 -101 -100s45 -102 101 -102c57 0 101 45 101 102c0 56 -45 100 -101 100z" />
    <glyph glyph-name="at" unicode="@" horiz-adv-x="1474" 
d="M1109 1040h-134l-11 -99c-61 77 -142 116 -241 116c-101 0 -188 -34 -259 -101c-82 -77 -123 -177 -123 -300c0 -105 31 -193 92 -263c64 -73 148 -109 252 -109c91 0 175 41 250 124c26 -80 75 -120 148 -120c75 0 140 31 193 94c91 107 137 239 137 397
c0 111 -27 212 -80 303c-57 99 -138 175 -243 229c-100 52 -209 78 -327 78c-135 0 -258 -33 -371 -100c-108 -64 -192 -149 -252 -256c-59 -106 -89 -222 -89 -349c0 -133 33 -256 98 -367c134 -227 349 -341 644 -341c165 0 329 39 490 118l-44 120
c-155 -75 -304 -112 -449 -112c-194 0 -347 62 -458 186c-99 110 -148 242 -148 396c0 167 55 305 164 416c110 111 248 166 414 166c153 0 279 -44 376 -133c101 -92 152 -214 152 -366c0 -83 -18 -160 -53 -233c-21 -42 -48 -75 -83 -100c-16 -11 -33 -17 -52 -17
c-37 0 -55 22 -55 66c0 22 2 53 7 92zM735 924c62 0 111 -21 148 -63c35 -39 53 -90 53 -153c0 -75 -22 -141 -65 -198c-47 -62 -106 -93 -179 -93c-61 0 -110 24 -147 73c-33 44 -49 98 -49 161c0 74 21 137 63 189c45 57 103 85 176 84z" />
    <glyph glyph-name="A" unicode="A" horiz-adv-x="1269" 
d="M868 536l221 -536h167l-613 1430l-629 -1430h166l225 536h463zM808 678h-341l173 397z" />
    <glyph glyph-name="B" unicode="B" horiz-adv-x="1085" 
d="M177 0h340c142 0 251 31 328 93c92 75 138 172 138 291c0 112 -39 202 -117 271c-37 33 -84 57 -141 74c90 66 135 155 135 266c0 121 -42 216 -126 285c-69 57 -172 85 -309 85h-248v-1365zM330 763v460h118c175 0 263 -77 263 -230c0 -75 -24 -134 -73 -177
c-40 -35 -105 -53 -194 -53h-114zM330 142v491h154c104 0 182 -14 233 -42c76 -41 114 -109 114 -202c0 -165 -109 -247 -327 -247h-174z" />
    <glyph glyph-name="C" unicode="C" horiz-adv-x="1323" 
d="M1220 1253c-129 90 -263 135 -403 135c-133 0 -255 -34 -367 -101c-107 -65 -192 -151 -255 -260c-62 -109 -93 -225 -93 -349c0 -114 27 -222 80 -323c68 -129 168 -229 300 -298c104 -55 213 -82 327 -82c145 0 282 44 411 133v190c-128 -120 -265 -180 -412 -180
c-133 0 -255 47 -364 142c-125 108 -188 247 -188 416c0 91 21 178 62 261c47 93 114 168 202 224s184 84 287 84c85 0 169 -20 251 -61c50 -25 104 -65 162 -120v189z" />
    <glyph glyph-name="D" unicode="D" horiz-adv-x="1297" 
d="M177 0h278c205 0 372 53 499 158c160 133 240 308 240 525c0 123 -27 234 -80 333c-70 131 -172 226 -306 287c-91 41 -208 62 -351 62h-280v-1365zM330 142v1081h133c223 0 386 -77 487 -230c60 -91 90 -194 90 -311c0 -173 -62 -311 -186 -415
c-99 -83 -230 -125 -391 -125h-133z" />
    <glyph glyph-name="E" unicode="E" horiz-adv-x="987" 
d="M884 1223v142h-707v-1365h707v142h-554v534h539v142h-539v405h554z" />
    <glyph glyph-name="F" unicode="F" horiz-adv-x="887" 
d="M798 1223v142h-621v-1365h153v676h453v142h-453v405h468z" />
    <glyph glyph-name="G" unicode="G" horiz-adv-x="1552" 
d="M560 705v-142h725c-9 -133 -59 -240 -148 -322s-200 -123 -333 -123c-138 0 -262 51 -373 153c-117 109 -176 244 -176 406c0 104 25 199 75 286c51 87 119 155 205 206c87 51 180 76 280 76c126 0 237 -39 334 -117c39 -31 82 -78 129 -139l112 102
c-59 71 -112 123 -157 158c-121 93 -261 139 -418 139c-119 0 -231 -28 -336 -83c-118 -62 -211 -149 -278 -260s-100 -233 -100 -366c0 -116 27 -225 81 -327c61 -116 147 -208 258 -276c111 -67 232 -101 362 -101c147 0 280 42 398 127c123 88 199 202 230 343
c13 58 19 145 19 260h-889z" />
    <glyph glyph-name="H" unicode="H" horiz-adv-x="1359" 
d="M330 810v555h-153v-1365h153v668h698v-668h153v1365h-153v-555h-698z" />
    <glyph glyph-name="I" unicode="I" horiz-adv-x="508" 
d="M330 1365h-153v-1365h153v1365z" />
    <glyph glyph-name="J" unicode="J" horiz-adv-x="629" 
d="M451 1365h-153v-1103c0 -174 -50 -261 -151 -261c-49 0 -101 25 -158 76l-85 -117c83 -68 165 -102 246 -102c201 0 301 135 301 404v1103z" />
    <glyph glyph-name="K" unicode="K" horiz-adv-x="1165" 
d="M330 779v586h-153v-1365h153v588l39 38l559 -626h209l-661 729l640 636h-204z" />
    <glyph glyph-name="L" unicode="L" horiz-adv-x="920" 
d="M330 1365h-153v-1365h698v142h-545v1223z" />
    <glyph glyph-name="M" unicode="M" horiz-adv-x="1678" 
d="M1471 1422l-609 -1145l-654 1145h-73v-1422h153v982l582 -982l520 982v-982h153v1422h-72z" />
    <glyph glyph-name="N" unicode="N" horiz-adv-x="1571" 
d="M177 0h153v1052l1064 -1114v1427h-153v-1057l-1064 1114v-1422z" />
    <glyph glyph-name="O" unicode="O" horiz-adv-x="1626" 
d="M814 1388c-189 -2 -352 -67 -487 -195c-150 -141 -225 -309 -225 -503c0 -132 31 -252 92 -360c62 -108 148 -194 259 -259c111 -64 229 -96 353 -96c133 0 255 33 368 100c109 64 194 150 256 257s93 224 93 349c0 128 -32 246 -97 354c-64 109 -150 195 -259 258
c-111 65 -228 96 -353 95zM813 1245c152 -1 281 -54 386 -157c113 -111 170 -247 170 -407c0 -97 -23 -188 -69 -273c-49 -89 -117 -160 -206 -212s-184 -78 -286 -78c-157 0 -288 56 -395 169c-105 111 -157 245 -157 402c0 135 45 256 136 361c113 131 253 196 421 195z
" />
    <glyph glyph-name="P" unicode="P" horiz-adv-x="937" 
d="M330 598h133c128 0 230 31 307 94c83 67 125 164 125 289c0 134 -47 234 -140 299c-81 57 -191 85 -330 85h-248v-1365h153v598zM330 737v486h113c201 0 302 -80 302 -240c0 -164 -97 -246 -291 -246h-124z" />
    <glyph glyph-name="Q" unicode="Q" horiz-adv-x="1626" 
d="M1531 -14l-204 208c131 147 196 307 196 480c0 124 -29 239 -87 344c-63 114 -150 204 -261 270c-111 67 -232 100 -362 100c-135 0 -260 -36 -376 -108c-105 -65 -187 -151 -246 -258c-59 -106 -89 -221 -89 -344c0 -121 29 -234 86 -338c62 -112 149 -201 260 -267
c112 -65 232 -98 361 -98c152 0 290 45 413 134l115 -123h194zM986 549h-200l329 -332c-91 -65 -194 -98 -308 -98c-155 0 -286 54 -392 162c-106 109 -159 241 -159 397c0 99 22 190 65 272c49 92 117 164 204 216c87 53 183 79 287 79c160 0 293 -55 400 -164
c105 -109 157 -243 157 -404c0 -139 -50 -263 -149 -374z" />
    <glyph glyph-name="R" unicode="R" horiz-adv-x="1029" 
d="M533 611c105 9 188 47 250 114s93 152 93 257c0 138 -50 241 -151 309c-73 49 -182 74 -327 74h-221v-1365h153v599h39l412 -599h186zM330 733v490h91c203 0 305 -80 305 -241c0 -166 -100 -249 -301 -249h-95z" />
    <glyph glyph-name="S" unicode="S" horiz-adv-x="1059" 
d="M906 1175c-81 142 -199 213 -352 213c-92 0 -174 -26 -246 -79c-91 -67 -136 -158 -136 -273c0 -142 92 -254 276 -337c129 -58 210 -97 242 -118c75 -48 113 -113 113 -194c0 -77 -27 -141 -80 -192s-117 -77 -194 -77c-96 0 -171 37 -224 110c-23 32 -42 79 -55 141
l-148 -41c25 -110 73 -196 144 -257c73 -64 166 -96 277 -96c113 0 210 35 291 105c95 83 143 188 143 315c0 94 -30 173 -90 237c-47 49 -120 96 -219 140c-126 55 -205 94 -237 115c-57 38 -85 87 -85 147c0 63 22 114 67 153c43 39 96 58 159 58c65 0 119 -20 163 -59
c22 -19 46 -49 71 -90z" />
    <glyph glyph-name="T" unicode="T" horiz-adv-x="870" 
d="M510 1223h332v142h-815v-142h330v-1223h153v1223z" />
    <glyph glyph-name="U" unicode="U" horiz-adv-x="1328" 
d="M330 1365h-153v-878c0 -191 63 -331 189 -419c89 -62 188 -93 297 -93c169 0 301 63 398 189c59 77 89 185 89 323v878h-153v-836c0 -83 -5 -144 -14 -182c-15 -63 -47 -113 -95 -151c-66 -52 -141 -78 -225 -78c-55 0 -109 13 -162 39c-56 27 -98 64 -125 109
c-31 51 -46 139 -46 263v836z" />
    <glyph glyph-name="V" unicode="V" horiz-adv-x="1135" 
d="M181 1365h-167l553 -1446l555 1446h-166l-387 -1041z" />
    <glyph glyph-name="W" unicode="W" horiz-adv-x="1957" 
d="M181 1365h-167l564 -1437l391 1093l362 -1092l612 1436h-166l-421 -1024l-384 1094l-404 -1092z" />
    <glyph glyph-name="X" unicode="X" horiz-adv-x="1028" 
d="M431 706l-404 -706h172l317 560l314 -560h171l-396 706l377 659h-175l-289 -514l-283 514h-172z" />
    <glyph glyph-name="Y" unicode="Y" horiz-adv-x="1081" 
d="M461 587v-587h153v587l454 778h-177l-353 -609l-348 609h-176z" />
    <glyph glyph-name="Z" unicode="Z" horiz-adv-x="1094" 
d="M301 142l745 1223h-902v-142h649l-745 -1223h979v142h-726z" />
    <glyph glyph-name="bracketleft" unicode="[" horiz-adv-x="597" 
d="M314 1356h194v138h-344v-1854h344v138h-194v1578z" />
    <glyph glyph-name="backslash" unicode="\" horiz-adv-x="994" 
d="M129 1502l-118 -55l893 -1816l118 55z" />
    <glyph glyph-name="bracketright" unicode="]" horiz-adv-x="597" 
d="M283 -222h-194v-138h344v1854h-344v-138h194v-1578z" />
    <glyph glyph-name="asciicircum" unicode="^" horiz-adv-x="1024" 
d="M216 745l295 502l296 -502h167l-361 625h-202l-361 -625h166z" />
    <glyph glyph-name="underscore" unicode="_" horiz-adv-x="1024" 
d="M0 -132v-141h1024v141h-1024z" />
    <glyph glyph-name="grave" unicode="`" horiz-adv-x="1024" 
d="M233 1275l276 -279l91 51l-216 296z" />
    <glyph glyph-name="a" unicode="a" horiz-adv-x="1017" 
d="M463 874l-166 -13l10 -133c69 12 122 18 158 18c43 0 88 -5 134 -14c56 -11 89 -22 99 -33c37 -40 56 -86 56 -137v-72c-48 64 -140 95 -275 94c-107 -1 -194 -25 -260 -72c-76 -54 -114 -132 -114 -235c0 -101 40 -178 120 -231c69 -45 156 -68 261 -68
c103 0 193 31 268 94v-80h139v554c0 99 -26 173 -78 222c-76 72 -177 108 -302 108c-17 0 -33 -1 -50 -2zM501 106c-103 -1 -169 15 -198 46c-37 39 -56 80 -57 123c-1 36 5 64 18 84c4 6 19 22 45 47c37 35 100 52 190 50c88 -2 158 -25 209 -69c35 -30 53 -67 53 -110
s-30 -84 -89 -121c-53 -33 -110 -50 -171 -50z" />
    <glyph glyph-name="b" unicode="b" horiz-adv-x="1073" 
d="M285 1494h-146v-1494h146v118c78 -95 176 -143 294 -143c107 0 199 37 276 111c89 85 133 198 133 341c0 122 -34 223 -102 303c-79 93 -181 140 -304 140c-117 0 -216 -47 -297 -141v765zM561 738c71 -1 132 -25 182 -72c64 -60 96 -142 96 -246
c0 -82 -23 -152 -68 -210c-53 -69 -124 -103 -213 -103c-88 0 -158 32 -210 95c-49 59 -73 133 -73 223s22 161 67 212c59 69 132 102 219 101z" />
    <glyph glyph-name="c" unicode="c" horiz-adv-x="892" 
d="M802 789c-83 54 -171 81 -264 81c-127 0 -233 -41 -316 -123c-91 -90 -137 -199 -137 -327c0 -107 34 -203 103 -286c87 -106 204 -159 349 -159c89 0 179 30 270 89v193c-85 -99 -176 -149 -275 -149c-88 0 -160 31 -216 92c-55 59 -82 133 -82 222c0 88 28 163 84 224
c57 61 129 92 216 92c94 0 183 -47 268 -141v192z" />
    <glyph glyph-name="d" unicode="d" horiz-adv-x="1073" 
d="M788 1494v-765c-81 94 -180 141 -297 141c-104 0 -194 -35 -270 -105c-91 -83 -136 -196 -136 -338c0 -123 34 -226 101 -307c80 -97 183 -145 308 -145c118 0 216 48 294 143v-118h146v1494h-146zM514 738c87 -1 157 -31 210 -92c49 -58 74 -131 74 -220
c0 -87 -22 -158 -65 -214c-55 -70 -128 -105 -219 -105c-89 0 -159 33 -210 98c-47 60 -70 135 -70 226c0 85 25 157 75 216c53 61 121 92 205 91z" />
    <glyph glyph-name="e" unicode="e" horiz-adv-x="986" 
d="M902 395v26c0 131 -34 237 -103 318c-73 87 -173 131 -302 131s-230 -44 -305 -131c-71 -82 -107 -188 -107 -319c0 -119 32 -218 95 -297c80 -99 188 -148 324 -148c111 0 206 35 285 105c36 32 71 78 105 137l-123 69c-37 -61 -72 -104 -106 -130
c-43 -33 -95 -49 -156 -49c-49 0 -95 12 -136 37c-84 50 -129 134 -134 251h663zM748 518h-500c11 64 40 117 86 158s101 62 165 62c83 0 150 -34 200 -101c23 -31 40 -71 49 -119z" />
    <glyph glyph-name="f" unicode="f" horiz-adv-x="490" 
d="M393 1517c61 0 122 -27 183 -81l-90 -104c-23 24 -51 37 -84 40c-51 4 -85 -17 -102 -62c-9 -25 -14 -69 -14 -132v-327h193v-135h-193v-716h-146v716h-191v135h191v360c0 99 17 171 50 215c46 61 114 91 203 91z" />
    <glyph glyph-name="g" unicode="g" horiz-adv-x="1075" 
d="M844 -275c-74 -101 -197 -150 -369 -149l-149 1l10 142l141 -11c10 -1 20 -1 29 -1c67 0 127 19 178 56c71 51 106 128 106 231v104c-71 -81 -171 -121 -300 -121c-119 0 -218 46 -299 138c-71 81 -106 183 -106 308c0 126 37 231 110 316c77 89 177 133 302 133
c127 0 225 -40 293 -121v100h146v-832c0 -113 -31 -211 -92 -294zM513 740c-91 1 -165 -37 -220 -114c-39 -55 -59 -122 -59 -201c0 -87 24 -161 72 -220c51 -64 120 -96 205 -96c90 0 163 35 220 104c44 54 66 124 66 210c0 89 -25 163 -74 222c-52 63 -122 94 -210 95z
" />
    <glyph glyph-name="h" unicode="h" horiz-adv-x="961" 
d="M139 1494v-1494h146v425c0 95 11 165 34 212c33 67 93 101 181 101c71 0 121 -23 148 -70c19 -32 28 -82 28 -151v-517h146v527c0 103 -17 178 -50 227c-53 77 -134 116 -243 116c-95 0 -176 -40 -244 -119v743h-146z" />
    <glyph glyph-name="i" unicode="i" horiz-adv-x="425" 
d="M285 851h-146v-851h146v851zM213 1275c-57 0 -105 -46 -105 -103c0 -59 45 -106 104 -106s105 46 105 105c0 57 -47 104 -104 104z" />
    <glyph glyph-name="j" unicode="j" horiz-adv-x="425" 
d="M285 851h-146v-1330h146v1330zM213 1275c-57 0 -105 -46 -105 -103c0 -59 45 -106 104 -106s105 46 105 105c0 57 -47 104 -104 104z" />
    <glyph glyph-name="k" unicode="k" horiz-adv-x="862" 
d="M285 1494h-146v-1494h146v350l36 37l344 -387h191l-433 489l364 362h-194l-308 -314v957z" />
    <glyph glyph-name="l" unicode="l" horiz-adv-x="425" 
d="M285 1494h-146v-1494h146v1494z" />
    <glyph glyph-name="m" unicode="m" horiz-adv-x="1393" 
d="M139 851v-851h146v463c0 184 61 276 184 276c105 0 157 -78 157 -234v-505h146v472c0 178 61 267 183 267c101 0 152 -74 152 -223v-516h146v540c0 95 -16 168 -47 217c-49 77 -125 115 -229 115c-112 0 -195 -46 -249 -139c-50 93 -128 139 -233 139
c-84 0 -154 -37 -210 -112v91h-146z" />
    <glyph glyph-name="n" unicode="n" horiz-adv-x="960" 
d="M139 851v-851h146v425c0 95 12 167 35 214c33 67 91 100 176 100c71 0 121 -24 150 -71c19 -31 28 -86 28 -165v-503h146v528c0 101 -16 177 -48 226c-51 78 -132 117 -243 117c-97 0 -178 -41 -244 -123v103h-146z" />
    <glyph glyph-name="o" unicode="o" horiz-adv-x="1068" 
d="M534 870c-122 -1 -225 -41 -309 -121c-93 -89 -140 -195 -140 -319c0 -79 17 -152 52 -218c39 -73 93 -131 163 -174c71 -42 148 -63 231 -63c118 0 219 37 303 112c99 88 149 200 149 336c0 117 -38 217 -115 301c-90 99 -201 147 -334 146zM533 738
c91 -1 163 -31 218 -90s83 -135 83 -226c0 -82 -22 -150 -66 -205c-59 -73 -139 -110 -238 -110c-90 0 -162 31 -217 94c-53 59 -79 135 -79 226c0 77 22 144 67 201c58 74 135 111 232 110z" />
    <glyph glyph-name="p" unicode="p" horiz-adv-x="1073" 
d="M285 -479v598c81 -96 180 -144 297 -144c104 0 194 35 271 106c90 83 135 196 135 339c0 122 -34 224 -101 306c-79 97 -182 145 -309 145c-115 0 -213 -47 -294 -140v120h-145v-1330h146zM561 739c88 -1 157 -34 208 -99c47 -60 70 -135 70 -225
c0 -85 -25 -157 -75 -215c-52 -62 -120 -93 -204 -93c-88 0 -158 31 -211 92c-49 58 -74 132 -74 221c0 85 22 156 67 213c57 72 130 107 219 106z" />
    <glyph glyph-name="q" unicode="q" horiz-adv-x="1073" 
d="M788 -479h146v1330h-146v-120c-78 93 -176 140 -294 140c-107 0 -200 -37 -277 -111c-88 -84 -132 -197 -132 -340c0 -124 34 -226 102 -305c80 -93 181 -140 304 -140c117 0 216 48 297 144v-598zM516 739c88 -1 158 -33 209 -96c49 -59 73 -133 73 -223
c0 -89 -22 -160 -66 -211c-58 -68 -131 -102 -220 -102c-70 0 -131 24 -182 72c-64 59 -96 142 -96 247c0 87 25 160 75 219c53 63 122 95 207 94z" />
    <glyph glyph-name="r" unicode="r" horiz-adv-x="650" 
d="M375 712l69 20c45 0 78 -19 100 -57l133 42c-39 97 -106 145 -200 145c-52 0 -85 -4 -98 -12c-46 -27 -77 -51 -94 -71v72h-146v-851h146v388c0 135 8 217 23 245c36 67 81 100 134 100c-20 0 -42 -7 -67 -21z" />
    <glyph glyph-name="s" unicode="s" horiz-adv-x="717" 
d="M608 716c-53 103 -130 154 -233 154c-70 0 -129 -22 -177 -67c-47 -45 -71 -102 -71 -171c0 -71 25 -124 75 -160c34 -25 91 -54 170 -88c46 -20 78 -37 95 -51c29 -23 43 -54 43 -92c0 -81 -59 -134 -140 -134c-69 0 -126 46 -171 139l-128 -54
c56 -145 155 -217 297 -217c83 0 152 26 207 77c56 52 84 119 84 201c0 79 -31 142 -93 187c-31 22 -85 49 -162 82c-91 38 -137 78 -137 121c0 55 46 95 102 95c49 0 88 -28 118 -85z" />
    <glyph glyph-name="t" unicode="t" horiz-adv-x="599" 
d="M376 716h220v135h-220v305h-146v-305h-229v-135h229v-716h146v716z" />
    <glyph glyph-name="u" unicode="u" horiz-adv-x="953" 
d="M816 2v851h-146v-425c0 -135 -13 -215 -40 -240c-51 -49 -108 -74 -171 -74c-71 0 -121 24 -150 71c-19 31 -28 86 -28 165v503h-146v-528c0 -101 16 -177 48 -226c51 -78 132 -117 243 -117c60 0 101 6 124 17c59 29 99 55 120 76v-73h146z" />
    <glyph glyph-name="v" unicode="v" horiz-adv-x="867" 
d="M180 851h-164l417 -906l417 906h-163l-253 -572z" />
    <glyph glyph-name="w" unicode="w" horiz-adv-x="1397" 
d="M181 851h-165l417 -910l264 634l262 -634l422 910h-164l-255 -575l-265 641l-265 -641z" />
    <glyph glyph-name="x" unicode="x" horiz-adv-x="931" 
d="M379 454l-363 -454h182l271 347l269 -347h176l-354 454l312 397h-181l-222 -290l-222 290h-178z" />
    <glyph glyph-name="y" unicode="y" horiz-adv-x="942" 
d="M407 81l-275 -560h165l628 1330h-165l-275 -609l-300 609h-169z" />
    <glyph glyph-name="z" unicode="z" horiz-adv-x="942" 
d="M310 135l612 716h-792v-135h501l-615 -716h880v135h-586z" />
    <glyph glyph-name="braceleft" unicode="{" horiz-adv-x="597" 
d="M246 565c49 27 83 59 101 98c15 33 23 79 23 140v383c0 87 15 140 45 158c22 13 61 20 118 20v128c-87 3 -152 -5 -194 -24c-79 -35 -118 -121 -118 -256v-400c0 -101 -39 -161 -117 -181v-121c78 -21 117 -85 117 -192v-377c0 -101 17 -174 50 -221
c39 -54 108 -81 205 -81c12 0 31 0 57 1v128c-71 0 -117 13 -137 39c-17 22 -26 71 -26 146v370c0 116 -41 197 -124 242z" />
    <glyph glyph-name="bar" unicode="|" horiz-adv-x="1024" 
d="M435 1365v-1706h154v1706h-154z" />
    <glyph glyph-name="braceright" unicode="}" horiz-adv-x="597" 
d="M349 568c-49 -27 -83 -59 -101 -98c-15 -33 -23 -79 -23 -140v-383c0 -69 -7 -114 -21 -135c-19 -29 -60 -44 -122 -44c-3 0 -10 0 -19 1v-128c23 -1 41 -2 54 -2c93 0 160 24 201 73c37 45 56 114 56 209v400c0 101 39 162 118 181v121c-79 21 -118 85 -118 192v377
c0 101 -17 174 -50 221c-39 54 -108 81 -205 81c-11 0 -30 0 -56 -1v-128c71 0 117 -13 137 -39c17 -22 25 -71 25 -146v-370c0 -116 41 -197 124 -242z" />
    <glyph glyph-name="asciitilde" unicode="~" horiz-adv-x="1365" 
d="M279 1192c53 98 114 147 181 147c35 0 79 -12 133 -36c147 -65 242 -98 286 -98c68 0 129 23 183 70c38 33 76 86 113 161l-91 53c-56 -92 -118 -138 -186 -138c-38 0 -104 21 -198 64c-103 47 -179 70 -229 70c-83 0 -152 -36 -206 -107c-23 -30 -48 -73 -75 -129z" />
    <glyph glyph-name="sterling" unicode="&#xa3;" horiz-adv-x="1161" 
d="M535 601c-9 20 -26 53 -51 98c-73 135 -110 233 -110 294c0 72 24 131 71 176c48 45 108 68 180 68c151 0 232 -99 244 -298l150 40c-6 145 -57 255 -154 328c-68 51 -148 77 -241 77c-129 0 -234 -46 -313 -137c-61 -69 -91 -151 -91 -244c0 -75 30 -171 90 -286
c9 -18 29 -57 58 -116h-179v-116h229c9 -33 13 -62 13 -85c0 -55 -19 -112 -58 -172c-104 -3 -192 -62 -265 -175l119 -79c48 72 102 108 163 108c35 0 98 -17 191 -50c101 -36 176 -54 225 -54c116 0 210 70 282 211l-124 74c-53 -91 -107 -136 -164 -136
c-25 0 -76 13 -153 40l-119 41c39 71 59 137 59 198c0 22 -4 48 -12 79h217v116h-257z" />
    <glyph glyph-name="currency" unicode="&#xa4;" horiz-adv-x="1365" 
d="M113 252l84 -84l193 192c108 -68 207 -102 296 -102c96 0 194 35 293 105l195 -195l84 84l-196 196c69 103 103 199 103 288c0 92 -34 189 -103 292l193 193l-85 85l-194 -193c-101 70 -199 105 -292 105c-92 0 -191 -35 -296 -106l-195 194l-85 -85l195 -195
c-68 -99 -102 -195 -102 -288c0 -95 35 -193 105 -293zM688 1083c95 -1 176 -36 241 -103s98 -148 98 -243c0 -97 -33 -178 -100 -245c-66 -66 -147 -99 -244 -99c-96 0 -177 33 -244 100c-66 67 -99 148 -99 244c0 98 33 180 100 247s150 100 248 99z" />
    <glyph glyph-name="brokenbar" unicode="&#xa6;" horiz-adv-x="1024" 
d="M435 1365v-682h154v682h-154zM435 314v-655h154v655h-154z" />
    <glyph glyph-name="section" unicode="&#xa7;" horiz-adv-x="1161" 
d="M211 5c4 -99 20 -173 49 -224c59 -105 160 -157 303 -157c107 0 194 31 259 92c66 61 99 145 99 251c0 92 -25 164 -76 215c-19 20 -51 43 -96 69c137 80 205 187 205 321c0 111 -36 196 -108 257c-44 37 -114 72 -209 105c-91 31 -150 58 -179 79c-47 35 -71 83 -71 144
c0 128 84 211 212 211c132 0 200 -82 205 -246h144c-5 97 -24 175 -57 233c-59 102 -156 153 -293 153c-101 0 -186 -31 -254 -93c-70 -64 -105 -146 -105 -247c0 -85 26 -155 79 -209c19 -20 51 -42 94 -67c-137 -62 -205 -169 -205 -322c0 -103 34 -184 101 -245
c39 -35 103 -69 192 -104c95 -37 156 -64 183 -81c59 -37 88 -94 88 -169c0 -128 -77 -205 -205 -205c-77 0 -133 27 -169 81c-21 32 -34 85 -38 158h-148zM580 796c62 -1 114 -23 157 -66s64 -95 64 -157c0 -63 -21 -116 -64 -159c-42 -43 -94 -64 -157 -64
s-116 22 -158 65c-42 44 -63 98 -63 161c0 61 22 112 65 155s95 65 156 65z" />
    <glyph glyph-name="dieresis" unicode="&#xa8;" horiz-adv-x="1024" 
d="M334 1249c-56 0 -102 -45 -102 -101c0 -59 43 -104 102 -104c57 0 103 46 103 103s-46 102 -103 102zM690 1249c-56 0 -103 -45 -103 -101c0 -57 46 -104 103 -104s102 46 102 103c0 56 -46 102 -102 102z" />
    <glyph glyph-name="copyright" unicode="&#xa9;" horiz-adv-x="1516" 
d="M769 1388c-189 0 -350 -61 -483 -182c-156 -142 -234 -315 -234 -518c0 -128 31 -247 94 -357s149 -197 258 -260s227 -94 354 -94c125 0 243 31 352 94c110 63 196 149 259 258s95 227 95 354c0 125 -32 242 -95 351s-147 195 -252 258c-107 64 -223 96 -348 96z
M767 1273c149 -3 277 -53 386 -152c131 -119 196 -265 196 -438c0 -106 -26 -205 -79 -297c-53 -91 -125 -163 -216 -216c-91 -52 -190 -78 -296 -78c-151 0 -282 51 -395 152c-131 117 -196 265 -196 443c0 149 51 279 152 390c121 133 271 199 448 196zM1072 980
c-92 77 -188 116 -287 116c-107 0 -202 -37 -284 -111c-93 -84 -139 -187 -139 -310c0 -117 42 -217 125 -299c83 -81 184 -122 302 -122c95 0 190 37 283 111v171c-45 -52 -74 -83 -87 -94c-59 -50 -126 -75 -199 -75c-83 0 -155 30 -215 89c-60 60 -90 132 -90 215
c0 75 25 142 76 201c63 73 139 109 228 109c77 0 144 -26 200 -78c13 -11 42 -44 87 -98v175z" />
    <glyph glyph-name="guillemotleft" unicode="&#xab;" horiz-adv-x="883" 
d="M537 437l243 309l-95 75l-305 -384l305 -376l95 76zM232 437l244 309l-96 75l-305 -384l306 -376l95 76z" />
    <glyph glyph-name="logicalnot" unicode="&#xac;" horiz-adv-x="1024" 
d="M801 0h154v546h-887v-143h733v-403z" />
    <glyph glyph-name="registered" unicode="&#xae;" horiz-adv-x="1516" 
d="M769 1388c-189 0 -350 -61 -483 -182c-156 -142 -234 -315 -234 -518c0 -128 31 -247 94 -357s149 -197 258 -260s227 -94 354 -94c125 0 243 31 352 94c110 63 196 149 259 258s95 227 95 354c0 125 -32 242 -95 351s-147 195 -252 258c-107 64 -223 96 -348 96z
M767 1273c149 -3 277 -53 386 -152c131 -119 196 -265 196 -438c0 -106 -26 -205 -79 -297c-53 -91 -125 -163 -216 -216c-91 -52 -190 -78 -296 -78c-151 0 -282 51 -395 152c-131 117 -196 265 -196 443c0 149 51 279 152 390c121 133 271 199 448 196zM801 627
c125 21 188 96 188 225c0 155 -90 233 -269 233h-141v-819h118v309l211 -309h143zM696 734v238h28c97 0 146 -40 146 -119s-45 -119 -136 -119h-38z" />
    <glyph glyph-name="degree" unicode="&#xb0;" horiz-adv-x="1161" 
d="M584 1385c-78 0 -144 -26 -197 -78s-80 -117 -80 -195c0 -77 26 -141 79 -194c53 -52 117 -78 194 -78s142 26 194 78c53 53 79 118 79 195c0 75 -26 139 -78 192s-116 80 -191 80zM582 1276c45 -1 83 -17 114 -49c32 -31 48 -69 48 -114s-16 -84 -48 -116
s-71 -48 -116 -48s-84 16 -116 48s-48 71 -48 116c0 46 16 85 48 116c33 32 72 48 118 47z" />
    <glyph glyph-name="plusminus" unicode="&#xb1;" horiz-adv-x="1161" 
d="M99 633h419v-398h126v398h419v126h-419v412h-126v-412h-419v-126zM99 0h964v126h-964v-126z" />
    <glyph glyph-name="acute" unicode="&#xb4;" horiz-adv-x="1024" 
d="M791 1275l-151 68l-216 -296l91 -51z" />
    <glyph glyph-name="paragraph" unicode="&#xb6;" horiz-adv-x="1161" 
d="M434 -202h130v1448h214v-1448h130v1448h90l68 119h-586c-106 0 -188 -18 -247 -54c-100 -61 -150 -161 -150 -299c0 -61 13 -118 38 -170c56 -114 150 -171 283 -171c8 0 18 0 30 1v-874z" />
    <glyph glyph-name="cedilla" unicode="&#xb8;" horiz-adv-x="1024" 
d="M679 -151l-135 55l-172 -267l101 -51z" />
    <glyph glyph-name="guillemotright" unicode="&#xbb;" horiz-adv-x="883" 
d="M346 437l-244 -300l95 -76l306 376l-306 384l-95 -75zM650 437l-243 -300l95 -76l305 376l-305 384l-95 -75z" />
    <glyph glyph-name="Aacute" unicode="&#xc1;" horiz-adv-x="1269" 
d="M868 536l221 -536h167l-613 1430l-629 -1430h166l225 536h463zM808 678h-341l173 397zM912 1715l-137 91l-245 -265l88 -65z" />
    <glyph glyph-name="Acircumflex" unicode="&#xc2;" horiz-adv-x="1269" 
d="M868 536l221 -536h167l-613 1430l-629 -1430h166l225 536h463zM808 678h-341l173 397zM362 1561l106 -84l179 155l180 -155l108 83l-288 244z" />
    <glyph glyph-name="Adieresis" unicode="&#xc4;" horiz-adv-x="1269" 
d="M868 536l221 -536h167l-613 1430l-629 -1430h166l225 536h463zM808 678h-341l173 397zM450 1738c-57 0 -104 -46 -104 -103c0 -59 46 -106 105 -106s104 46 104 105s-46 104 -105 104zM839 1738c-57 0 -104 -46 -104 -103c0 -59 46 -106 105 -106c57 0 104 48 104 105
c0 59 -46 104 -105 104z" />
    <glyph glyph-name="Ccedilla" unicode="&#xc7;" horiz-adv-x="1323" 
d="M1220 1253c-129 90 -263 135 -403 135c-133 0 -255 -34 -367 -101c-107 -65 -192 -151 -255 -260c-62 -109 -93 -225 -93 -349c0 -114 27 -222 80 -323c68 -129 168 -229 300 -298c104 -55 213 -82 327 -82c145 0 282 44 411 133v190c-128 -120 -265 -180 -412 -180
c-133 0 -255 47 -364 142c-125 108 -188 247 -188 416c0 91 21 178 62 261c47 93 114 168 202 224s184 84 287 84c85 0 169 -20 251 -61c50 -25 104 -65 162 -120v189zM886 -162l-146 66l-183 -278l103 -53z" />
    <glyph glyph-name="Eacute" unicode="&#xc9;" horiz-adv-x="987" 
d="M884 1223v142h-707v-1365h707v142h-554v534h539v142h-539v405h554zM790 1715l-137 91l-245 -265l88 -65z" />
    <glyph glyph-name="Edieresis" unicode="&#xcb;" horiz-adv-x="987" 
d="M884 1223v142h-707v-1365h707v142h-554v534h539v142h-539v405h554zM336 1738c-57 0 -104 -46 -104 -103c0 -59 46 -106 105 -106s104 46 104 105s-46 104 -105 104zM725 1738c-57 0 -104 -46 -104 -103c0 -59 46 -106 105 -106c57 0 104 48 104 105
c0 59 -46 104 -105 104z" />
    <glyph glyph-name="Iacute" unicode="&#xcd;" horiz-adv-x="508" 
d="M330 1365h-153v-1365h153v1365zM489 1715l-137 91l-197 -272l88 -58z" />
    <glyph glyph-name="Icircumflex" unicode="&#xce;" horiz-adv-x="508" 
d="M331 1365h-153v-1365h153v1365zM2 1561l99 -84l152 155l152 -155l102 83l-254 244z" />
    <glyph glyph-name="Oacute" unicode="&#xd3;" horiz-adv-x="1626" 
d="M814 1388c-189 -2 -352 -67 -487 -195c-150 -141 -225 -309 -225 -503c0 -132 31 -252 92 -360c62 -108 148 -194 259 -259c111 -64 229 -96 353 -96c133 0 255 33 368 100c109 64 194 150 256 257s93 224 93 349c0 128 -32 246 -97 354c-64 109 -150 195 -259 258
c-111 65 -228 96 -353 95zM813 1245c152 -1 281 -54 386 -157c113 -111 170 -247 170 -407c0 -97 -23 -188 -69 -273c-49 -89 -117 -160 -206 -212s-184 -78 -286 -78c-157 0 -288 56 -395 169c-105 111 -157 245 -157 402c0 135 45 256 136 361c113 131 253 196 421 195z
M1089 1715l-137 91l-245 -265l88 -65z" />
    <glyph glyph-name="Ocircumflex" unicode="&#xd4;" horiz-adv-x="1626" 
d="M814 1388c-189 -2 -352 -67 -487 -195c-150 -141 -225 -309 -225 -503c0 -132 31 -252 92 -360c62 -108 148 -194 259 -259c111 -64 229 -96 353 -96c133 0 255 33 368 100c109 64 194 150 256 257s93 224 93 349c0 128 -32 246 -97 354c-64 109 -150 195 -259 258
c-111 65 -228 96 -353 95zM813 1245c152 -1 281 -54 386 -157c113 -111 170 -247 170 -407c0 -97 -23 -188 -69 -273c-49 -89 -117 -160 -206 -212s-184 -78 -286 -78c-157 0 -288 56 -395 169c-105 111 -157 245 -157 402c0 135 45 256 136 361c113 131 253 196 421 195z
M526 1561l106 -84l179 155l180 -155l108 83l-288 244z" />
    <glyph glyph-name="Otilde" horiz-adv-x="1626" 
d="M814 1388c-189 -2 -352 -67 -487 -195c-150 -141 -225 -309 -225 -503c0 -132 31 -252 92 -360c62 -108 148 -194 259 -259c111 -64 229 -96 353 -96c133 0 255 33 368 100c109 64 194 150 256 257s93 224 93 349c0 128 -32 246 -97 354c-64 109 -150 195 -259 258
c-111 65 -228 96 -353 95zM813 1245c152 -1 281 -54 386 -157c113 -111 170 -247 170 -407c0 -97 -23 -188 -69 -273c-49 -89 -117 -160 -206 -212s-184 -78 -286 -78c-157 0 -288 56 -395 169c-105 111 -157 245 -157 402c0 135 45 256 136 361c113 131 253 196 421 195z
M618 1528c28 59 56 88 83 88c20 0 59 -14 118 -42s103 -42 130 -42c77 0 140 49 187 148l-87 66c-29 -58 -61 -87 -94 -87c-19 0 -57 14 -115 42c-57 28 -100 42 -128 42c-73 0 -133 -49 -182 -146z" />
    <glyph glyph-name="Odieresis" unicode="&#xd6;" horiz-adv-x="1626" 
d="M814 1388c-189 -2 -352 -67 -487 -195c-150 -141 -225 -309 -225 -503c0 -132 31 -252 92 -360c62 -108 148 -194 259 -259c111 -64 229 -96 353 -96c133 0 255 33 368 100c109 64 194 150 256 257s93 224 93 349c0 128 -32 246 -97 354c-64 109 -150 195 -259 258
c-111 65 -228 96 -353 95zM813 1245c152 -1 281 -54 386 -157c113 -111 170 -247 170 -407c0 -97 -23 -188 -69 -273c-49 -89 -117 -160 -206 -212s-184 -78 -286 -78c-157 0 -288 56 -395 169c-105 111 -157 245 -157 402c0 135 45 256 136 361c113 131 253 196 421 195z
M618 1738c-57 0 -104 -46 -104 -103c0 -59 46 -106 105 -106c57 0 104 48 104 105c0 59 -46 104 -105 104zM1007 1738c-57 0 -104 -46 -104 -103c0 -59 46 -106 105 -106c57 0 104 48 104 105c0 59 -46 104 -105 104z" />
    <glyph glyph-name="multiply" unicode="&#xd7;" horiz-adv-x="1161" 
d="M177 1013l317 -317l-317 -317l86 -86l317 317l317 -317l86 86l-317 317l317 317l-86 86l-317 -317l-317 317z" />
    <glyph glyph-name="Uacute" unicode="&#xda;" horiz-adv-x="1328" 
d="M330 1365h-153v-878c0 -191 63 -331 189 -419c89 -62 188 -93 297 -93c169 0 301 63 398 189c59 77 89 185 89 323v878h-153v-836c0 -83 -5 -144 -14 -182c-15 -63 -47 -113 -95 -151c-66 -52 -141 -78 -225 -78c-55 0 -109 13 -162 39c-56 27 -98 64 -125 109
c-31 51 -46 139 -46 263v836zM933 1715l-137 91l-245 -265l88 -65z" />
    <glyph glyph-name="Udieresis" unicode="&#xdc;" horiz-adv-x="1328" 
d="M330 1365h-153v-878c0 -191 63 -331 189 -419c89 -62 188 -93 297 -93c169 0 301 63 398 189c59 77 89 185 89 323v878h-153v-836c0 -83 -5 -144 -14 -182c-15 -63 -47 -113 -95 -151c-66 -52 -141 -78 -225 -78c-55 0 -109 13 -162 39c-56 27 -98 64 -125 109
c-31 51 -46 139 -46 263v836zM469 1738c-57 0 -104 -46 -104 -103c0 -59 46 -106 105 -106s104 46 104 105s-46 104 -105 104zM858 1738c-57 0 -104 -46 -104 -103c0 -59 46 -106 105 -106c57 0 104 48 104 105c0 59 -46 104 -105 104z" />
    <glyph glyph-name="Yacute" unicode="&#xdd;" horiz-adv-x="1081" 
d="M461 587v-587h153v587l454 778h-177l-353 -609l-348 609h-176zM811 1715l-137 91l-245 -265l88 -65z" />
    <glyph glyph-name="germandbls" unicode="&#xdf;" horiz-adv-x="1073" 
d="M139 0h146v1066c0 105 9 178 26 217c30 68 91 102 183 102c61 0 110 -19 149 -57c39 -37 58 -86 58 -146c0 -35 -7 -69 -22 -100c-35 -73 -104 -113 -209 -118v-132c247 -31 370 -149 370 -352c0 -120 -49 -216 -147 -287c-59 -43 -133 -67 -223 -74v-143
c183 10 324 81 424 214c63 84 95 179 95 285c0 66 -13 130 -39 192c-50 119 -134 201 -253 246c102 54 153 142 153 263c0 89 -28 166 -85 229c-67 75 -156 112 -267 112c-57 0 -111 -10 -160 -31c-133 -56 -199 -174 -199 -353v-282h-79v-135h79v-716z" />
    <glyph glyph-name="aacute" unicode="&#xe1;" horiz-adv-x="1073" 
d="M463 874l-166 -13l10 -133c69 12 122 18 158 18c43 0 88 -5 134 -14c56 -11 89 -22 99 -33c37 -40 56 -86 56 -137v-72c-48 64 -140 95 -275 94c-107 -1 -194 -25 -260 -72c-76 -54 -114 -132 -114 -235c0 -101 40 -178 120 -231c69 -45 156 -68 261 -68
c103 0 193 31 268 94v-80h139v554c0 99 -26 173 -78 222c-76 72 -177 108 -302 108c-17 0 -33 -1 -50 -2zM501 106c-103 -1 -169 15 -198 46c-37 39 -56 80 -57 123c-1 36 5 64 18 84c4 6 19 22 45 47c37 35 100 52 190 50c88 -2 158 -25 209 -69c35 -30 53 -67 53 -110
s-30 -84 -89 -121c-53 -33 -110 -50 -171 -50zM802 1275l-151 68l-216 -296l91 -51z" />
    <glyph glyph-name="acircumflex" unicode="&#xe2;" horiz-adv-x="1073" 
d="M463 874l-166 -13l10 -133c69 12 122 18 158 18c43 0 88 -5 134 -14c56 -11 89 -22 99 -33c37 -40 56 -86 56 -137v-72c-48 64 -140 95 -275 94c-107 -1 -194 -25 -260 -72c-76 -54 -114 -132 -114 -235c0 -101 40 -178 120 -231c69 -45 156 -68 261 -68
c103 0 193 31 268 94v-80h139v554c0 99 -26 173 -78 222c-76 72 -177 108 -302 108c-17 0 -33 -1 -50 -2zM501 106c-103 -1 -169 15 -198 46c-37 39 -56 80 -57 123c-1 36 5 64 18 84c4 6 19 22 45 47c37 35 100 52 190 50c88 -2 158 -25 209 -69c35 -30 53 -67 53 -110
s-30 -84 -89 -121c-53 -33 -110 -50 -171 -50zM260 1077l103 -81l179 170l180 -169l105 80l-285 266z" />
    <glyph glyph-name="adieresis" unicode="&#xe4;" horiz-adv-x="1073" 
d="M463 874l-166 -13l10 -133c69 12 122 18 158 18c43 0 88 -5 134 -14c56 -11 89 -22 99 -33c37 -40 56 -86 56 -137v-72c-48 64 -140 95 -275 94c-107 -1 -194 -25 -260 -72c-76 -54 -114 -132 -114 -235c0 -101 40 -178 120 -231c69 -45 156 -68 261 -68
c103 0 193 31 268 94v-80h139v554c0 99 -26 173 -78 222c-76 72 -177 108 -302 108c-17 0 -33 -1 -50 -2zM501 106c-103 -1 -169 15 -198 46c-37 39 -56 80 -57 123c-1 36 5 64 18 84c4 6 19 22 45 47c37 35 100 52 190 50c88 -2 158 -25 209 -69c35 -30 53 -67 53 -110
s-30 -84 -89 -121c-53 -33 -110 -50 -171 -50zM406 1209c-56 0 -102 -45 -102 -101c0 -59 43 -104 102 -104c57 0 103 46 103 103s-46 102 -103 102zM762 1209c-56 0 -103 -45 -103 -101c0 -57 46 -104 103 -104s102 46 102 103c0 56 -46 102 -102 102z" />
    <glyph glyph-name="ccedilla" unicode="&#xe7;" horiz-adv-x="892" 
d="M802 789c-83 54 -171 81 -264 81c-127 0 -233 -41 -316 -123c-91 -90 -137 -199 -137 -327c0 -107 34 -203 103 -286c87 -106 204 -159 349 -159c89 0 179 30 270 89v193c-85 -99 -176 -149 -275 -149c-88 0 -160 31 -216 92c-55 59 -82 133 -82 222c0 88 28 163 84 224
c57 61 129 92 216 92c94 0 183 -47 268 -141v192zM613 -151l-135 55l-172 -267l101 -51z" />
    <glyph glyph-name="eacute" unicode="&#xe9;" horiz-adv-x="986" 
d="M902 395v26c0 131 -34 237 -103 318c-73 87 -173 131 -302 131s-230 -44 -305 -131c-71 -82 -107 -188 -107 -319c0 -119 32 -218 95 -297c80 -99 188 -148 324 -148c111 0 206 35 285 105c36 32 71 78 105 137l-123 69c-37 -61 -72 -104 -106 -130
c-43 -33 -95 -49 -156 -49c-49 0 -95 12 -136 37c-84 50 -129 134 -134 251h663zM748 518h-500c11 64 40 117 86 158s101 62 165 62c83 0 150 -34 200 -101c23 -31 40 -71 49 -119zM772 1275l-151 68l-216 -296l91 -51z" />
    <glyph glyph-name="edieresis" unicode="&#xeb;" horiz-adv-x="986" 
d="M902 395v26c0 131 -34 237 -103 318c-73 87 -173 131 -302 131s-230 -44 -305 -131c-71 -82 -107 -188 -107 -319c0 -119 32 -218 95 -297c80 -99 188 -148 324 -148c111 0 206 35 285 105c36 32 71 78 105 137l-123 69c-37 -61 -72 -104 -106 -130
c-43 -33 -95 -49 -156 -49c-49 0 -95 12 -136 37c-84 50 -129 134 -134 251h663zM748 518h-500c11 64 40 117 86 158s101 62 165 62c83 0 150 -34 200 -101c23 -31 40 -71 49 -119zM336 1249c-56 0 -102 -45 -102 -101c0 -59 43 -104 102 -104c57 0 103 46 103 103
s-46 102 -103 102zM692 1249c-56 0 -103 -45 -103 -101c0 -57 46 -104 103 -104s102 46 102 103c0 56 -46 102 -102 102z" />
    <glyph glyph-name="iacute" unicode="&#xed;" horiz-adv-x="425" 
d="M286 851h-146v-851h146v851zM451 1275l-151 68l-175 -296l84 -51z" />
    <glyph glyph-name="icircumflex" unicode="&#xee;" horiz-adv-x="425" 
d="M285 851h-146v-851h146v851zM-30 1077l96 -81l145 170l146 -169l98 80l-244 266z" />
    <glyph glyph-name="oacute" unicode="&#xf3;" horiz-adv-x="1068" 
d="M534 870c-122 -1 -225 -41 -309 -121c-93 -89 -140 -195 -140 -319c0 -79 17 -152 52 -218c39 -73 93 -131 163 -174c71 -42 148 -63 231 -63c118 0 219 37 303 112c99 88 149 200 149 336c0 117 -38 217 -115 301c-90 99 -201 147 -334 146zM533 738
c91 -1 163 -31 218 -90s83 -135 83 -226c0 -82 -22 -150 -66 -205c-59 -73 -139 -110 -238 -110c-90 0 -162 31 -217 94c-53 59 -79 135 -79 226c0 77 22 144 67 201c58 74 135 111 232 110zM800 1275l-151 68l-216 -296l91 -51z" />
    <glyph glyph-name="ocircumflex" unicode="&#xf4;" horiz-adv-x="1068" 
d="M534 870c-122 -1 -225 -41 -309 -121c-93 -89 -140 -195 -140 -319c0 -79 17 -152 52 -218c39 -73 93 -131 163 -174c71 -42 148 -63 231 -63c118 0 219 37 303 112c99 88 149 200 149 336c0 117 -38 217 -115 301c-90 99 -201 147 -334 146zM533 738
c91 -1 163 -31 218 -90s83 -135 83 -226c0 -82 -22 -150 -66 -205c-59 -73 -139 -110 -238 -110c-90 0 -162 31 -217 94c-53 59 -79 135 -79 226c0 77 22 144 67 201c58 74 135 111 232 110zM258 1077l103 -81l179 170l180 -169l105 80l-285 266z" />
    <glyph glyph-name="otilde" horiz-adv-x="1068" 
d="M534 870c-122 -1 -225 -41 -309 -121c-93 -89 -140 -195 -140 -319c0 -79 17 -152 52 -218c39 -73 93 -131 163 -174c71 -42 148 -63 231 -63c118 0 219 37 303 112c99 88 149 200 149 336c0 117 -38 217 -115 301c-90 99 -201 147 -334 146zM533 738
c91 -1 163 -31 218 -90s83 -135 83 -226c0 -82 -22 -150 -66 -205c-59 -73 -139 -110 -238 -110c-90 0 -162 31 -217 94c-53 59 -79 135 -79 226c0 77 22 144 67 201c58 74 135 111 232 110zM347 1037c19 60 48 90 87 90c17 0 53 -14 108 -43s95 -43 118 -43
c83 0 143 49 181 148l-85 66c-29 -58 -61 -87 -96 -87c-12 0 -45 14 -99 42s-95 42 -124 42c-81 0 -140 -49 -175 -146z" />
    <glyph glyph-name="odieresis" unicode="&#xf6;" horiz-adv-x="1068" 
d="M534 870c-122 -1 -225 -41 -309 -121c-93 -89 -140 -195 -140 -319c0 -79 17 -152 52 -218c39 -73 93 -131 163 -174c71 -42 148 -63 231 -63c118 0 219 37 303 112c99 88 149 200 149 336c0 117 -38 217 -115 301c-90 99 -201 147 -334 146zM533 738
c91 -1 163 -31 218 -90s83 -135 83 -226c0 -82 -22 -150 -66 -205c-59 -73 -139 -110 -238 -110c-90 0 -162 31 -217 94c-53 59 -79 135 -79 226c0 77 22 144 67 201c58 74 135 111 232 110zM356 1249c-56 0 -102 -45 -102 -101c0 -59 43 -104 102 -104c57 0 103 46 103 103
s-46 102 -103 102zM712 1249c-56 0 -103 -45 -103 -101c0 -57 46 -104 103 -104s102 46 102 103c0 56 -46 102 -102 102z" />
    <glyph glyph-name="divide" unicode="&#xf7;" horiz-adv-x="1161" 
d="M98 633h964v126h-964v-126zM580 524c-53 0 -96 -42 -96 -95s43 -97 96 -97s96 43 96 96s-43 96 -96 96zM580 1061c-53 0 -96 -42 -96 -95s43 -97 96 -97s96 43 96 96s-43 96 -96 96z" />
    <glyph glyph-name="uacute" unicode="&#xfa;" horiz-adv-x="953" 
d="M816 2v851h-146v-425c0 -135 -13 -215 -40 -240c-51 -49 -108 -74 -171 -74c-71 0 -121 24 -150 71c-19 31 -28 86 -28 165v503h-146v-528c0 -101 16 -177 48 -226c51 -78 132 -117 243 -117c60 0 101 6 124 17c59 29 99 55 120 76v-73h146zM735 1275l-151 68l-216 -296
l91 -51z" />
    <glyph glyph-name="udieresis" unicode="&#xfc;" horiz-adv-x="953" 
d="M816 2v851h-146v-425c0 -135 -13 -215 -40 -240c-51 -49 -108 -74 -171 -74c-71 0 -121 24 -150 71c-19 31 -28 86 -28 165v503h-146v-528c0 -101 16 -177 48 -226c51 -78 132 -117 243 -117c60 0 101 6 124 17c59 29 99 55 120 76v-73h146zM318 1249
c-56 0 -102 -45 -102 -101c0 -59 43 -104 102 -104c57 0 103 46 103 103s-46 102 -103 102zM674 1249c-56 0 -103 -45 -103 -101c0 -57 46 -104 103 -104s102 46 102 103c0 56 -46 102 -102 102z" />
    <glyph glyph-name="yacute" unicode="&#xfd;" horiz-adv-x="942" 
d="M407 81l-275 -560h165l628 1330h-165l-275 -609l-300 609h-169zM729 1275l-151 68l-216 -296l91 -51z" />
    <glyph glyph-name="Amacron" unicode="&#x100;" horiz-adv-x="1269" 
d="M868 536l221 -536h167l-613 1430l-629 -1430h166l225 536h463zM808 678h-341l173 397zM342 1687v-127h601v127h-601z" />
    <glyph glyph-name="amacron" unicode="&#x101;" horiz-adv-x="1073" 
d="M463 874l-166 -13l10 -133c69 12 122 18 158 18c43 0 88 -5 134 -14c56 -11 89 -22 99 -33c37 -40 56 -86 56 -137v-72c-48 64 -140 95 -275 94c-107 -1 -194 -25 -260 -72c-76 -54 -114 -132 -114 -235c0 -101 40 -178 120 -231c69 -45 156 -68 261 -68
c103 0 193 31 268 94v-80h139v554c0 99 -26 173 -78 222c-76 72 -177 108 -302 108c-17 0 -33 -1 -50 -2zM501 106c-103 -1 -169 15 -198 46c-37 39 -56 80 -57 123c-1 36 5 64 18 84c4 6 19 22 45 47c37 35 100 52 190 50c88 -2 158 -25 209 -69c35 -30 53 -67 53 -110
s-30 -84 -89 -121c-53 -33 -110 -50 -171 -50zM269 1201v-123h550v123h-550z" />
    <glyph glyph-name="Abreve" unicode="&#x102;" horiz-adv-x="1269" 
d="M868 536l221 -536h167l-613 1430l-629 -1430h166l225 536h463zM808 678h-341l173 397zM358 1764c6 -69 25 -124 58 -165c54 -67 129 -101 225 -101c93 0 166 34 221 101c34 42 55 97 63 165h-130c-22 -91 -74 -136 -155 -136c-79 0 -129 45 -151 136h-131z" />
    <glyph glyph-name="abreve" unicode="&#x103;" horiz-adv-x="1073" 
d="M463 874l-166 -13l10 -133c69 12 122 18 158 18c43 0 88 -5 134 -14c56 -11 89 -22 99 -33c37 -40 56 -86 56 -137v-72c-48 64 -140 95 -275 94c-107 -1 -194 -25 -260 -72c-76 -54 -114 -132 -114 -235c0 -101 40 -178 120 -231c69 -45 156 -68 261 -68
c103 0 193 31 268 94v-80h139v554c0 99 -26 173 -78 222c-76 72 -177 108 -302 108c-17 0 -33 -1 -50 -2zM501 106c-103 -1 -169 15 -198 46c-37 39 -56 80 -57 123c-1 36 5 64 18 84c4 6 19 22 45 47c37 35 100 52 190 50c88 -2 158 -25 209 -69c35 -30 53 -67 53 -110
s-30 -84 -89 -121c-53 -33 -110 -50 -171 -50zM275 1297c2 -79 27 -144 75 -193c49 -49 113 -73 192 -73c85 0 154 34 207 101c35 43 56 98 63 165h-126c-17 -95 -65 -143 -145 -143c-84 0 -130 48 -139 143h-127z" />
    <glyph glyph-name="Aogonek" unicode="&#x104;" horiz-adv-x="1269" 
d="M1256 0l-613 1430l-629 -1430h166l165 386h583l161 -386h34c-105 -65 -158 -134 -158 -208c0 -34 10 -66 29 -95c37 -56 92 -84 167 -84c46 0 86 11 119 33l15 125c-39 -23 -76 -34 -111 -34c-55 0 -82 27 -82 80c0 57 51 118 154 183zM868 528h-461l233 548z" />
    <glyph glyph-name="aogonek" unicode="&#x105;" horiz-adv-x="1073" 
d="M934 0v851h-146v-121c-81 94 -179 141 -296 141c-105 0 -195 -35 -272 -105c-90 -83 -135 -196 -135 -339c0 -123 34 -225 101 -307c79 -97 182 -145 309 -145c116 0 214 48 293 143v-118h30c-102 -66 -153 -135 -153 -207c0 -27 8 -53 23 -79c33 -55 85 -82 156 -82
c37 0 73 9 107 28l19 112c-37 -18 -72 -27 -105 -27c-52 0 -78 25 -78 76s49 110 147 179zM514 739c88 -1 158 -31 210 -92c49 -57 74 -131 74 -220c0 -87 -22 -159 -65 -214c-55 -71 -129 -106 -220 -106c-87 0 -157 33 -208 99c-47 60 -71 135 -71 225c0 86 25 158 75 216
c53 62 121 93 205 92z" />
    <glyph glyph-name="Cacute" unicode="&#x106;" horiz-adv-x="1323" 
d="M1220 1253c-129 90 -263 135 -403 135c-133 0 -255 -34 -367 -101c-107 -65 -192 -151 -255 -260c-62 -109 -93 -225 -93 -349c0 -114 27 -222 80 -323c68 -129 168 -229 300 -298c104 -55 213 -82 327 -82c145 0 282 44 411 133v190c-128 -120 -265 -180 -412 -180
c-133 0 -255 47 -364 142c-125 108 -188 247 -188 416c0 91 21 178 62 261c47 93 114 168 202 224s184 84 287 84c85 0 169 -20 251 -61c50 -25 104 -65 162 -120v189zM1074 1715l-137 91l-245 -265l88 -65z" />
    <glyph glyph-name="cacute" unicode="&#x107;" horiz-adv-x="892" 
d="M802 789c-83 54 -171 81 -264 81c-127 0 -233 -41 -316 -123c-91 -90 -137 -199 -137 -327c0 -107 34 -203 103 -286c87 -106 204 -159 349 -159c89 0 179 30 270 89v193c-85 -99 -176 -149 -275 -149c-88 0 -160 31 -216 92c-55 59 -82 133 -82 222c0 88 28 163 84 224
c57 61 129 92 216 92c94 0 183 -47 268 -141v192zM793 1275l-151 68l-216 -296l91 -51z" />
    <glyph glyph-name="Ccaron" unicode="&#x10c;" horiz-adv-x="1323" 
d="M1220 1253c-129 90 -263 135 -403 135c-133 0 -255 -34 -367 -101c-107 -65 -192 -151 -255 -260c-62 -109 -93 -225 -93 -349c0 -114 27 -222 80 -323c68 -129 168 -229 300 -298c104 -55 213 -82 327 -82c145 0 282 44 411 133v190c-128 -120 -265 -180 -412 -180
c-133 0 -255 47 -364 142c-125 108 -188 247 -188 416c0 91 21 178 62 261c47 93 114 168 202 224s184 84 287 84c85 0 169 -20 251 -61c50 -25 104 -65 162 -120v189zM1094 1721l-106 83l-179 -154l-180 154l-108 -83l288 -244z" />
    <glyph glyph-name="ccaron" unicode="&#x10d;" horiz-adv-x="892" 
d="M802 789c-83 54 -171 81 -264 81c-127 0 -233 -41 -316 -123c-91 -90 -137 -199 -137 -327c0 -107 34 -203 103 -286c87 -106 204 -159 349 -159c89 0 179 30 270 89v193c-85 -99 -176 -149 -275 -149c-88 0 -160 31 -216 92c-55 59 -82 133 -82 222c0 88 28 163 84 224
c57 61 129 92 216 92c94 0 183 -47 268 -141v192zM812 1263l-103 80l-179 -169l-180 169l-105 -80l285 -267z" />
    <glyph glyph-name="Dcaron" unicode="&#x10e;" horiz-adv-x="1297" 
d="M177 0h278c205 0 372 53 499 158c160 133 240 308 240 525c0 123 -27 234 -80 333c-70 131 -172 226 -306 287c-91 41 -208 62 -351 62h-280v-1365zM330 142v1081h133c223 0 386 -77 487 -230c60 -91 90 -194 90 -311c0 -173 -62 -311 -186 -415
c-99 -83 -230 -125 -391 -125h-133zM866 1721l-106 83l-179 -154l-180 154l-108 -83l288 -244z" />
    <glyph glyph-name="dcaron" unicode="&#x10f;" horiz-adv-x="1267" 
d="M788 1494v-765c-81 94 -180 141 -297 141c-104 0 -194 -35 -270 -105c-91 -83 -136 -196 -136 -338c0 -123 34 -226 101 -307c80 -97 183 -145 308 -145c118 0 216 48 294 143v-118h146v1494h-146zM514 738c87 -1 157 -31 210 -92c49 -58 74 -131 74 -220
c0 -87 -22 -158 -65 -214c-55 -70 -128 -105 -219 -105c-89 0 -159 33 -210 98c-47 60 -70 135 -70 226c0 85 25 157 75 216c53 61 121 92 205 91zM1126 1501l-97 -325l104 -32l134 314z" />
    <glyph glyph-name="Dslash" unicode="&#x110;" horiz-adv-x="1297" 
d="M179 0h277c205 0 371 53 498 158c160 133 240 307 240 524c0 123 -27 235 -80 334c-70 131 -172 226 -306 287c-91 41 -208 62 -350 62h-279v-561h-137v-137h137v-667zM332 142v525h327v137h-327v419h132c223 0 385 -77 486 -230c60 -91 90 -194 90 -311
c0 -173 -62 -311 -186 -415c-99 -83 -229 -125 -390 -125h-132z" />
    <glyph glyph-name="dslash" unicode="&#x111;" horiz-adv-x="1073" 
d="M788 1494v-191h-246v-130h246v-444c-81 94 -180 141 -298 141c-103 0 -193 -35 -270 -105c-91 -83 -136 -196 -136 -338c0 -123 34 -226 101 -307c80 -97 183 -145 308 -145c119 0 217 48 295 143v-118h146v1173h123v130h-123v191h-146zM513 738c87 -1 157 -31 210 -92
c49 -58 74 -131 74 -220c0 -87 -22 -158 -65 -214c-55 -70 -128 -105 -220 -105c-87 0 -157 33 -208 99c-47 60 -71 135 -71 225c0 85 25 157 75 216c53 61 121 92 205 91z" />
    <glyph glyph-name="Emacron" unicode="&#x112;" horiz-adv-x="987" 
d="M884 1223v142h-707v-1365h707v142h-554v534h539v142h-539v405h554zM230 1687v-127h601v127h-601z" />
    <glyph glyph-name="emacron" unicode="&#x113;" horiz-adv-x="986" 
d="M902 395v26c0 131 -34 237 -103 318c-73 87 -173 131 -302 131s-230 -44 -305 -131c-71 -82 -107 -188 -107 -319c0 -119 32 -218 95 -297c80 -99 188 -148 324 -148c111 0 206 35 285 105c36 32 71 78 105 137l-123 69c-37 -61 -72 -104 -106 -130
c-43 -33 -95 -49 -156 -49c-49 0 -95 12 -136 37c-84 50 -129 134 -134 251h663zM748 518h-500c11 64 40 117 86 158s101 62 165 62c83 0 150 -34 200 -101c23 -31 40 -71 49 -119zM239 1201v-123h550v123h-550z" />
    <glyph glyph-name="Eogonek" unicode="&#x118;" horiz-adv-x="987" 
d="M884 0v142h-554v534h539v142h-539v405h554v142h-707v-1365h574c-105 -64 -158 -133 -158 -208c0 -34 10 -66 29 -95c37 -56 92 -84 166 -84c47 0 87 11 120 33l15 125c-40 -23 -77 -34 -112 -34c-55 0 -82 27 -82 80c0 57 52 118 155 183z" />
    <glyph glyph-name="eogonek" unicode="&#x119;" horiz-adv-x="986" 
d="M804 -228c-38 -18 -73 -27 -105 -27c-45 0 -80 36 -80 81c0 31 13 67 38 108c11 19 42 53 93 104c66 67 114 126 144 179l-123 69c-37 -60 -72 -103 -106 -129c-43 -33 -95 -49 -156 -49c-49 0 -95 12 -136 37c-84 50 -129 133 -134 250h663v26c0 131 -34 237 -103 318
c-73 87 -173 131 -302 131c-128 0 -230 -43 -305 -130c-71 -83 -107 -189 -107 -319c0 -79 15 -151 45 -217c69 -152 195 -228 378 -228c30 0 66 4 107 13c-79 -68 -118 -131 -118 -189c0 -28 8 -56 24 -83c33 -57 85 -85 156 -85c38 0 74 9 108 28zM748 518h-500
c11 64 40 117 86 158s101 62 165 62c83 0 150 -34 200 -101c23 -31 40 -71 49 -119z" />
    <glyph glyph-name="Ecaron" unicode="&#x11a;" horiz-adv-x="987" 
d="M884 1223v142h-707v-1365h707v142h-554v534h539v142h-539v405h554zM817 1721l-106 83l-179 -154l-180 154l-108 -83l288 -244z" />
    <glyph glyph-name="ecaron" unicode="&#x11b;" horiz-adv-x="986" 
d="M902 395v26c0 131 -34 237 -103 318c-73 87 -173 131 -302 131s-230 -44 -305 -131c-71 -82 -107 -188 -107 -319c0 -119 32 -218 95 -297c80 -99 188 -148 324 -148c111 0 206 35 285 105c36 32 71 78 105 137l-123 69c-37 -61 -72 -104 -106 -130
c-43 -33 -95 -49 -156 -49c-49 0 -95 12 -136 37c-84 50 -129 134 -134 251h663zM748 518h-500c11 64 40 117 86 158s101 62 165 62c83 0 150 -34 200 -101c23 -31 40 -71 49 -119zM798 1263l-103 80l-179 -169l-180 169l-105 -80l285 -267z" />
    <glyph glyph-name="Imacron" unicode="&#x12a;" horiz-adv-x="508" 
d="M331 1365h-153v-1365h153v1365zM36 1687v-127h437v127h-437z" />
    <glyph glyph-name="imacron" unicode="&#x12b;" horiz-adv-x="425" 
d="M285 851h-146v-851h146v851zM-8 1201v-123h441v123h-441z" />
    <glyph glyph-name="Iogonek" unicode="&#x12e;" horiz-adv-x="508" 
d="M331 0v1365h-153v-1365h61c-89 -71 -134 -139 -134 -204c0 -50 17 -92 50 -125s75 -50 125 -50c31 0 65 9 103 28l12 122c-30 -17 -57 -26 -82 -26c-51 0 -77 23 -77 70c0 51 32 112 95 185z" />
    <glyph glyph-name="iogonek" unicode="&#x12f;" horiz-adv-x="425" 
d="M285 0v851h-146v-851h65c-82 -87 -123 -156 -123 -207c0 -43 16 -81 49 -113s72 -48 115 -48c29 0 56 9 81 28l14 107c-27 -16 -51 -24 -74 -24c-43 0 -64 25 -64 74c0 47 28 108 83 183zM213 1275c-57 0 -105 -46 -105 -103c0 -59 45 -106 104 -106s105 46 105 105
c0 57 -47 104 -104 104z" />
    <glyph glyph-name="Lacute" unicode="&#x139;" horiz-adv-x="733" 
d="M331 1365h-153v-1365h698v142h-545v1223zM541 1715l-137 91l-245 -265l88 -65z" />
    <glyph glyph-name="lacute" unicode="&#x13a;" horiz-adv-x="425" 
d="M285 1494h-146v-1494h146v1494zM458 1810l-130 92l-204 -272l88 -59z" />
    <glyph glyph-name="Lcaron" unicode="&#x13d;" horiz-adv-x="733" 
d="M330 1365h-153v-1365h698v142h-545v1223zM548 1372l-110 -327l104 -34l161 311z" />
    <glyph glyph-name="lcaron" unicode="&#x13e;" horiz-adv-x="618" 
d="M285 1494h-146v-1494h146v1494zM477 1501l-97 -325l104 -32l134 314z" />
    <glyph glyph-name="Lslash" unicode="&#x141;" horiz-adv-x="733" 
d="M331 806v559h-153v-626l-137 -95v-155l137 95v-584h528v142h-375v509l233 164v155z" />
    <glyph glyph-name="lslash" unicode="&#x142;" horiz-adv-x="425" 
d="M286 864v630h-146v-700l-130 -95v-156l130 96v-639h146v708l130 97v156z" />
    <glyph glyph-name="Nacute" unicode="&#x143;" horiz-adv-x="1571" 
d="M177 0h153v1052l1064 -1114v1427h-153v-1057l-1064 1114v-1422zM1048 1715l-137 91l-245 -265l88 -65z" />
    <glyph glyph-name="nacute" unicode="&#x144;" horiz-adv-x="960" 
d="M139 851v-851h146v425c0 95 12 167 35 214c33 67 91 100 176 100c71 0 121 -24 150 -71c19 -31 28 -86 28 -165v-503h146v528c0 101 -16 177 -48 226c-51 78 -132 117 -243 117c-97 0 -178 -41 -244 -123v103h-146zM725 1275l-151 68l-216 -296l91 -51z" />
    <glyph glyph-name="Ncaron" unicode="&#x147;" horiz-adv-x="1571" 
d="M177 0h153v1052l1064 -1114v1427h-153v-1057l-1064 1114v-1422zM1072 1721l-106 83l-179 -154l-180 154l-108 -83l288 -244z" />
    <glyph glyph-name="ncaron" unicode="&#x148;" horiz-adv-x="960" 
d="M139 851v-851h146v425c0 95 12 167 35 214c33 67 91 100 176 100c71 0 121 -24 150 -71c19 -31 28 -86 28 -165v-503h146v528c0 101 -16 177 -48 226c-51 78 -132 117 -243 117c-97 0 -178 -41 -244 -123v103h-146zM750 1263l-103 80l-179 -169l-180 169l-105 -80
l285 -267z" />
    <glyph glyph-name="Omacron" unicode="&#x14c;" horiz-adv-x="1626" 
d="M814 1388c-189 -2 -352 -67 -487 -195c-150 -141 -225 -309 -225 -503c0 -132 31 -252 92 -360c62 -108 148 -194 259 -259c111 -64 229 -96 353 -96c133 0 255 33 368 100c109 64 194 150 256 257s93 224 93 349c0 128 -32 246 -97 354c-64 109 -150 195 -259 258
c-111 65 -228 96 -353 95zM813 1245c152 -1 281 -54 386 -157c113 -111 170 -247 170 -407c0 -97 -23 -188 -69 -273c-49 -89 -117 -160 -206 -212s-184 -78 -286 -78c-157 0 -288 56 -395 169c-105 111 -157 245 -157 402c0 135 45 256 136 361c113 131 253 196 421 195z
M512 1687v-127h601v127h-601z" />
    <glyph glyph-name="omacron" unicode="&#x14d;" horiz-adv-x="1068" 
d="M534 870c-122 -1 -225 -41 -309 -121c-93 -89 -140 -195 -140 -319c0 -79 17 -152 52 -218c39 -73 93 -131 163 -174c71 -42 148 -63 231 -63c118 0 219 37 303 112c99 88 149 200 149 336c0 117 -38 217 -115 301c-90 99 -201 147 -334 146zM533 738
c91 -1 163 -31 218 -90s83 -135 83 -226c0 -82 -22 -150 -66 -205c-59 -73 -139 -110 -238 -110c-90 0 -162 31 -217 94c-53 59 -79 135 -79 226c0 77 22 144 67 201c58 74 135 111 232 110zM259 1201v-123h550v123h-550z" />
    <glyph glyph-name="Racute" unicode="&#x154;" horiz-adv-x="1029" 
d="M533 611c105 9 188 47 250 114s93 152 93 257c0 138 -50 241 -151 309c-73 49 -182 74 -327 74h-221v-1365h153v599h39l412 -599h186zM330 733v490h91c203 0 305 -80 305 -241c0 -166 -100 -249 -301 -249h-95zM756 1715l-137 91l-245 -265l88 -65z" />
    <glyph glyph-name="racute" unicode="&#x155;" horiz-adv-x="603" 
d="M375 712l69 20c45 0 78 -19 100 -57l133 42c-39 97 -106 145 -200 145c-52 0 -85 -4 -98 -12c-46 -27 -77 -51 -94 -71v72h-146v-851h146v388c0 135 8 217 23 245c36 67 81 100 134 100c-20 0 -42 -7 -67 -21zM601 1275l-151 68l-216 -296l91 -51z" />
    <glyph glyph-name="Rcaron" unicode="&#x158;" horiz-adv-x="1029" 
d="M533 611c105 9 188 47 250 114s93 152 93 257c0 138 -50 241 -151 309c-73 49 -182 74 -327 74h-221v-1365h153v599h39l412 -599h186zM330 733v490h91c203 0 305 -80 305 -241c0 -166 -100 -249 -301 -249h-95zM773 1721l-106 83l-179 -154l-180 154l-108 -83l288 -244z
" />
    <glyph glyph-name="rcaron" unicode="&#x159;" horiz-adv-x="603" 
d="M375 712l69 20c45 0 78 -19 100 -57l133 42c-39 97 -106 145 -200 145c-52 0 -85 -4 -98 -12c-46 -27 -77 -51 -94 -71v72h-146v-851h146v388c0 135 8 217 23 245c36 67 81 100 134 100c-20 0 -42 -7 -67 -21zM623 1263l-103 80l-179 -169l-180 169l-105 -80l285 -267z
" />
    <glyph glyph-name="Sacute" unicode="&#x15a;" horiz-adv-x="1059" 
d="M906 1175c-81 142 -199 213 -352 213c-92 0 -174 -26 -246 -79c-91 -67 -136 -158 -136 -273c0 -142 92 -254 276 -337c129 -58 210 -97 242 -118c75 -48 113 -113 113 -194c0 -77 -27 -141 -80 -192s-117 -77 -194 -77c-96 0 -171 37 -224 110c-23 32 -42 79 -55 141
l-148 -41c25 -110 73 -196 144 -257c73 -64 166 -96 277 -96c113 0 210 35 291 105c95 83 143 188 143 315c0 94 -30 173 -90 237c-47 49 -120 96 -219 140c-126 55 -205 94 -237 115c-57 38 -85 87 -85 147c0 63 22 114 67 153c43 39 96 58 159 58c65 0 119 -20 163 -59
c22 -19 46 -49 71 -90zM826 1715l-137 91l-245 -265l88 -65z" />
    <glyph glyph-name="sacute" unicode="&#x15b;" horiz-adv-x="717" 
d="M608 716c-53 103 -130 154 -233 154c-70 0 -129 -22 -177 -67c-47 -45 -71 -102 -71 -171c0 -71 25 -124 75 -160c34 -25 91 -54 170 -88c46 -20 78 -37 95 -51c29 -23 43 -54 43 -92c0 -81 -59 -134 -140 -134c-69 0 -126 46 -171 139l-128 -54
c56 -145 155 -217 297 -217c83 0 152 26 207 77c56 52 84 119 84 201c0 79 -31 142 -93 187c-31 22 -85 49 -162 82c-91 38 -137 78 -137 121c0 55 46 95 102 95c49 0 88 -28 118 -85zM644 1275l-151 68l-216 -296l91 -51z" />
    <glyph glyph-name="Scedilla" unicode="&#x15e;" horiz-adv-x="1059" 
d="M906 1175c-81 142 -199 213 -352 213c-92 0 -174 -26 -246 -79c-91 -67 -136 -158 -136 -273c0 -142 92 -254 276 -337c129 -58 210 -97 242 -118c75 -48 113 -113 113 -194c0 -77 -27 -141 -80 -192s-117 -77 -194 -77c-96 0 -171 37 -224 110c-23 32 -42 79 -55 141
l-148 -41c25 -110 73 -196 144 -257c73 -64 166 -96 277 -96c113 0 210 35 291 105c95 83 143 188 143 315c0 94 -30 173 -90 237c-47 49 -120 96 -219 140c-126 55 -205 94 -237 115c-57 38 -85 87 -85 147c0 63 22 114 67 153c43 39 96 58 159 58c65 0 119 -20 163 -59
c22 -19 46 -49 71 -90zM639 -162l-146 66l-183 -278l103 -53z" />
    <glyph glyph-name="scedilla" unicode="&#x15f;" horiz-adv-x="717" 
d="M608 716c-53 103 -130 154 -233 154c-70 0 -129 -22 -177 -67c-47 -45 -71 -102 -71 -171c0 -71 25 -124 75 -160c34 -25 91 -54 170 -88c46 -20 78 -37 95 -51c29 -23 43 -54 43 -92c0 -81 -59 -134 -140 -134c-69 0 -126 46 -171 139l-128 -54
c56 -145 155 -217 297 -217c83 0 152 26 207 77c56 52 84 119 84 201c0 79 -31 142 -93 187c-31 22 -85 49 -162 82c-91 38 -137 78 -137 121c0 55 46 95 102 95c49 0 88 -28 118 -85zM457 -151l-135 55l-172 -267l101 -51z" />
    <glyph glyph-name="Scaron" unicode="&#x160;" horiz-adv-x="1059" 
d="M906 1175c-81 142 -199 213 -352 213c-92 0 -174 -26 -246 -79c-91 -67 -136 -158 -136 -273c0 -142 92 -254 276 -337c129 -58 210 -97 242 -118c75 -48 113 -113 113 -194c0 -77 -27 -141 -80 -192s-117 -77 -194 -77c-96 0 -171 37 -224 110c-23 32 -42 79 -55 141
l-148 -41c25 -110 73 -196 144 -257c73 -64 166 -96 277 -96c113 0 210 35 291 105c95 83 143 188 143 315c0 94 -30 173 -90 237c-47 49 -120 96 -219 140c-126 55 -205 94 -237 115c-57 38 -85 87 -85 147c0 63 22 114 67 153c43 39 96 58 159 58c65 0 119 -20 163 -59
c22 -19 46 -49 71 -90zM843 1721l-106 83l-179 -154l-180 154l-108 -83l288 -244z" />
    <glyph glyph-name="scaron" unicode="&#x161;" horiz-adv-x="717" 
d="M608 716c-53 103 -130 154 -233 154c-70 0 -129 -22 -177 -67c-47 -45 -71 -102 -71 -171c0 -71 25 -124 75 -160c34 -25 91 -54 170 -88c46 -20 78 -37 95 -51c29 -23 43 -54 43 -92c0 -81 -59 -134 -140 -134c-69 0 -126 46 -171 139l-128 -54
c56 -145 155 -217 297 -217c83 0 152 26 207 77c56 52 84 119 84 201c0 79 -31 142 -93 187c-31 22 -85 49 -162 82c-91 38 -137 78 -137 121c0 55 46 95 102 95c49 0 88 -28 118 -85zM659 1263l-103 80l-179 -169l-180 169l-105 -80l285 -267z" />
    <glyph glyph-name="Tcaron" unicode="&#x164;" horiz-adv-x="870" 
d="M510 1223h332v142h-815v-142h330v-1223h153v1223zM721 1721l-106 83l-179 -154l-180 154l-108 -83l288 -244z" />
    <glyph glyph-name="tcaron" unicode="&#x165;" horiz-adv-x="633" 
d="M376 716h220v135h-220v305h-146v-305h-229v-135h229v-716h146v716zM492 1399l-97 -325l104 -32l134 314z" />
    <glyph glyph-name="Umacron" unicode="&#x16a;" horiz-adv-x="1328" 
d="M330 1365h-153v-878c0 -191 63 -331 189 -419c89 -62 188 -93 297 -93c169 0 301 63 398 189c59 77 89 185 89 323v878h-153v-836c0 -83 -5 -144 -14 -182c-15 -63 -47 -113 -95 -151c-66 -52 -141 -78 -225 -78c-55 0 -109 13 -162 39c-56 27 -98 64 -125 109
c-31 51 -46 139 -46 263v836zM363 1687v-127h601v127h-601z" />
    <glyph glyph-name="umacron" unicode="&#x16b;" horiz-adv-x="953" 
d="M816 2v851h-146v-425c0 -135 -13 -215 -40 -240c-51 -49 -108 -74 -171 -74c-71 0 -121 24 -150 71c-19 31 -28 86 -28 165v503h-146v-528c0 -101 16 -177 48 -226c51 -78 132 -117 243 -117c60 0 101 6 124 17c59 29 99 55 120 76v-73h146zM201 1201v-123h550v123h-550z
" />
    <glyph glyph-name="Uring" unicode="&#x16e;" horiz-adv-x="1328" 
d="M330 1365h-153v-878c0 -191 63 -331 189 -419c89 -62 188 -93 297 -93c169 0 301 63 398 189c59 77 89 185 89 323v878h-153v-836c0 -83 -5 -144 -14 -182c-15 -63 -47 -113 -95 -151c-66 -52 -141 -78 -225 -78c-55 0 -109 13 -162 39c-56 27 -98 64 -125 109
c-31 51 -46 139 -46 263v836zM663 1835c-52 0 -96 -18 -132 -53c-35 -35 -53 -78 -53 -130c0 -53 18 -98 53 -134c36 -36 80 -54 133 -54c52 0 96 18 131 54c36 36 54 80 54 132c0 53 -18 98 -53 133s-80 53 -133 52zM664 1735c48 0 85 -37 85 -85s-37 -86 -85 -86
s-86 39 -86 87c0 47 39 84 86 84z" />
    <glyph glyph-name="uring" unicode="&#x16f;" horiz-adv-x="953" 
d="M816 2v851h-146v-425c0 -135 -13 -215 -40 -240c-51 -49 -108 -74 -171 -74c-71 0 -121 24 -150 71c-19 31 -28 86 -28 165v503h-146v-528c0 -101 16 -177 48 -226c51 -78 132 -117 243 -117c60 0 101 6 124 17c59 29 99 55 120 76v-73h146zM476 1361
c-52 0 -96 -18 -132 -53c-35 -35 -53 -78 -53 -130c0 -54 18 -99 53 -135c35 -35 80 -53 133 -53s97 18 132 53c35 36 53 80 53 133s-18 98 -53 133s-80 53 -133 52zM477 1261c48 0 85 -37 85 -85s-37 -86 -85 -86s-86 39 -86 87c0 47 39 84 86 84z" />
    <glyph glyph-name="Uogonek" unicode="&#x172;" horiz-adv-x="1328" 
d="M1019 -215c-39 -23 -76 -34 -111 -34c-55 0 -82 29 -82 87c0 59 51 138 152 238c67 67 113 128 136 184c24 57 36 132 36 227v878h-153v-836c0 -83 -5 -144 -14 -182c-15 -63 -47 -113 -95 -151c-66 -52 -141 -78 -225 -78c-55 0 -109 13 -162 39c-56 27 -98 64 -125 109
c-31 51 -46 139 -46 263v836h-153v-878c0 -191 63 -330 189 -419c88 -62 190 -93 305 -93c45 0 94 8 149 25c-87 -67 -130 -131 -130 -194c0 -34 10 -66 29 -95c37 -56 92 -84 166 -84c46 0 86 11 120 32z" />
    <glyph glyph-name="uogonek" unicode="&#x173;" horiz-adv-x="953" 
d="M766 -228c-38 -18 -73 -27 -105 -27c-53 0 -79 28 -79 84c0 52 36 119 109 200c49 55 81 101 97 140c17 42 25 98 25 169v513h-146v-496c0 -75 -9 -128 -26 -160c-31 -58 -86 -87 -165 -87c-35 0 -67 8 -98 24c-62 33 -93 107 -93 223v496h-146v-513
c0 -114 26 -199 77 -256c65 -71 148 -107 250 -107c25 0 61 4 109 12c-77 -65 -116 -128 -116 -187c0 -29 8 -57 24 -84c33 -56 85 -84 156 -84c38 0 74 9 108 28z" />
    <glyph glyph-name="Zacute" unicode="&#x179;" horiz-adv-x="1094" 
d="M301 142l745 1223h-902v-142h649l-745 -1223h979v142h-726zM851 1715l-137 91l-245 -265l88 -65z" />
    <glyph glyph-name="zacute" unicode="&#x17a;" horiz-adv-x="942" 
d="M310 135l612 716h-792v-135h501l-615 -716h880v135h-586zM770 1275l-151 68l-216 -296l91 -51z" />
    <glyph glyph-name="Zcaron" unicode="&#x17d;" horiz-adv-x="1094" 
d="M301 142l745 1223h-902v-142h649l-745 -1223h979v142h-726zM868 1721l-106 83l-179 -154l-180 154l-108 -83l288 -244z" />
    <glyph glyph-name="zcaron" unicode="&#x17e;" horiz-adv-x="942" 
d="M310 135l612 716h-792v-135h501l-615 -716h880v135h-586zM787 1263l-103 80l-179 -169l-180 169l-105 -80l285 -267z" />
    <glyph glyph-name="caron" unicode="&#x2c7;" horiz-adv-x="1024" 
d="M796 1263l-103 80l-179 -169l-180 169l-105 -80l285 -267z" />
    <glyph glyph-name="breve" unicode="&#x2d8;" horiz-adv-x="1024" 
d="M243 1297c2 -79 27 -144 75 -193c49 -49 113 -73 192 -73c85 0 154 34 207 101c35 43 56 98 63 165h-126c-17 -95 -65 -143 -145 -143c-84 0 -130 48 -139 143h-127z" />
    <glyph glyph-name="dotaccent" unicode="&#x2d9;" horiz-adv-x="1024" 
d="M512 1250c-57 0 -104 -46 -104 -103c0 -59 46 -106 105 -106s104 46 104 105s-46 104 -105 104z" />
    <glyph glyph-name="ogonek" unicode="&#x2db;" horiz-adv-x="1024" 
d="M784 0c-102 -66 -153 -135 -153 -207c0 -27 8 -53 23 -79c33 -55 85 -82 156 -82c37 0 73 9 108 28l18 112c-37 -18 -72 -27 -104 -27c-53 0 -79 26 -79 77c0 53 49 112 147 178h-116z" />
    <glyph glyph-name="hungarumlaut" unicode="&#x2dd;" horiz-adv-x="1024" 
d="M644 1280l-131 63l-216 -299l75 -48zM917 1280l-131 63l-216 -299l75 -48z" />
    <glyph glyph-name="increment" unicode="&#x394;" horiz-adv-x="1365" 
d="M55 0h1255l-547 1365h-165zM275 143l406 1035l406 -1035h-812z" />
    <glyph glyph-name="increment" unicode="&#x2206;" horiz-adv-x="1365" 
d="M55 0h1255l-547 1365h-165zM275 143l406 1035l406 -1035h-812z" />
    <glyph glyph-name="mu" unicode="&#xb5;" horiz-adv-x="953" 
d="M286 -479l-7 518c60 -43 128 -64 203 -64c105 0 190 36 255 107c51 57 77 142 77 256v513h-146v-496c0 -74 -9 -127 -26 -160c-31 -59 -86 -88 -165 -88c-43 0 -81 11 -113 32c-52 35 -78 99 -78 193v519h-146v-1330h146z" />
    <glyph glyph-name="mu" unicode="&#x3bc;" horiz-adv-x="953" 
d="M286 -479l-7 518c60 -43 128 -64 203 -64c105 0 190 36 255 107c51 57 77 142 77 256v513h-146v-496c0 -74 -9 -127 -26 -160c-31 -59 -86 -88 -165 -88c-43 0 -81 11 -113 32c-52 35 -78 99 -78 193v519h-146v-1330h146z" />
    <glyph glyph-name="endash" unicode="&#x2013;" horiz-adv-x="1161" 
d="M240 502v-131h681v131h-681z" />
    <glyph glyph-name="emdash" unicode="&#x2014;" horiz-adv-x="1114" 
d="M0 502v-131h1114v131h-1114z" />
    <glyph glyph-name="quoteleft" unicode="&#x2018;" horiz-adv-x="535" 
d="M250 923l169 472l-97 39l-206 -462z" />
    <glyph glyph-name="quoteright" unicode="&#x2019;" horiz-adv-x="517" 
d="M264 1434l-170 -472l98 -39l206 462z" />
    <glyph glyph-name="quotesinglbase" unicode="&#x201a;" horiz-adv-x="517" 
d="M264 205l-170 -472l98 -39l206 462z" />
    <glyph glyph-name="quotedblleft" unicode="&#x201c;" horiz-adv-x="836" 
d="M550 923l169 472l-97 39l-206 -462zM250 923l169 472l-97 39l-206 -462z" />
    <glyph glyph-name="quotedblright" unicode="&#x201d;" horiz-adv-x="835" 
d="M286 1434l-170 -472l98 -39l205 462zM586 1434l-170 -472l98 -39l205 462z" />
    <glyph glyph-name="quotedblbase" unicode="&#x201e;" horiz-adv-x="835" 
d="M286 200l-170 -472l98 -39l205 462zM586 200l-170 -472l98 -39l205 462z" />
    <glyph glyph-name="dagger" unicode="&#x2020;" horiz-adv-x="1161" 
d="M507 1494v-336h-302v-142h302v-1376h147v1376h302v142h-302v336h-147z" />
    <glyph glyph-name="daggerdbl" unicode="&#x2021;" horiz-adv-x="1161" 
d="M506 1494v-336h-302v-142h302v-617h-302v-142h302v-617h149v617h301v142h-301v617h301v142h-301v336h-149z" />
    <glyph glyph-name="bullet" unicode="&#x2022;" horiz-adv-x="1365" 
d="M689 978c-82 0 -151 -27 -206 -81c-55 -53 -82 -121 -82 -203c0 -80 27 -147 82 -202s122 -82 202 -82c81 0 148 27 202 81c55 55 82 122 82 203c0 79 -27 146 -81 201s-120 83 -199 83z" />
    <glyph glyph-name="ellipsis" unicode="&#x2026;" horiz-adv-x="1527" 
d="M254 181c-56 -1 -100 -43 -100 -99s45 -102 101 -102s100 45 100 101c0 57 -44 101 -101 100zM763 181c-56 -1 -100 -43 -100 -99s45 -102 101 -102s100 45 100 101c0 57 -44 101 -101 100zM1273 181c-56 0 -100 -44 -100 -99c0 -56 45 -102 101 -102s100 45 100 101
c0 59 -44 101 -101 100z" />
    <glyph glyph-name="perthousand" unicode="&#x2030;" horiz-adv-x="2208" 
d="M372 1379c-84 -1 -154 -28 -210 -83c-63 -61 -94 -131 -94 -210c0 -75 24 -141 71 -197c59 -71 136 -106 231 -106c87 0 159 28 218 84c59 57 89 128 89 214c0 73 -24 137 -71 192c-61 71 -139 107 -234 106zM372 1266c51 -1 95 -19 130 -54s53 -79 53 -130
c0 -52 -18 -96 -53 -131s-79 -53 -130 -53c-53 0 -97 18 -132 53c-35 36 -52 80 -52 133c0 50 18 93 54 128c37 36 80 54 130 54zM1089 1392l-794 -1372l79 -46l795 1374zM1092 582c-83 -1 -154 -29 -213 -84c-60 -57 -90 -127 -90 -210c0 -74 24 -139 71 -196
c59 -71 136 -106 230 -106c86 0 158 28 217 85s89 128 89 213c0 71 -24 135 -71 191c-61 72 -138 108 -233 107zM1092 469c52 -1 96 -19 131 -54s53 -78 53 -130s-18 -96 -53 -131s-79 -53 -130 -53c-53 0 -97 18 -132 53c-35 36 -52 80 -52 133c0 50 18 93 54 128
c36 36 79 54 129 54zM1834 582c-84 -1 -154 -28 -210 -83c-63 -61 -94 -131 -94 -211c0 -75 24 -140 71 -196c59 -71 136 -106 231 -106c86 0 159 28 218 85s89 128 89 213c0 71 -24 134 -72 191c-61 72 -139 108 -233 107zM1833 469c52 -1 96 -19 131 -54s53 -78 53 -130
s-18 -96 -53 -131s-79 -53 -130 -53c-53 0 -97 18 -132 53c-35 36 -52 80 -52 133c0 50 18 93 54 128c36 36 79 54 129 54z" />
    <glyph glyph-name="guilsinglleft" unicode="&#x2039;" horiz-adv-x="578" 
d="M232 437l244 309l-96 75l-305 -384l306 -376l95 76z" />
    <glyph glyph-name="guilsinglright" unicode="&#x203a;" horiz-adv-x="578" 
d="M346 437l-244 -300l95 -76l306 376l-306 384l-95 -75z" />
    <glyph glyph-name="trademark" unicode="&#x2122;" horiz-adv-x="1476" 
d="M292 1272h186v93h-470v-93h185v-685h99v685zM552 587h96l74 528l256 -567l261 567l70 -528h96l-125 828l-301 -646l-293 646z" />
    <glyph glyph-name="summation" unicode="&#x2211;" horiz-adv-x="1365" 
d="M1227 1536h-1170v-158l509 -826l-509 -903v-161h1189v466h-145l-8 -323h-864l517 921l-517 840h844l14 -326h140v470z" />
    <glyph glyph-name="middot" unicode="&#xb7;" horiz-adv-x="461" 
d="M231 538c-56 -1 -101 -43 -101 -99c0 -57 44 -103 101 -103c56 0 101 45 101 101c0 57 -44 102 -101 101z" />
    <glyph glyph-name="middot" unicode="&#x2219;" horiz-adv-x="461" 
d="M231 538c-56 -1 -101 -43 -101 -99c0 -57 44 -103 101 -103c56 0 101 45 101 101c0 57 -44 102 -101 101z" />
    <glyph glyph-name="radical" unicode="&#x221a;" horiz-adv-x="1365" 
d="M1365 1698h-532l-220 -792l-86 -305l-49 -218c-24 -107 -37 -166 -39 -175h-11l-6 32c-27 144 -44 228 -51 253l-74 260h-297v-143h171l166 -610h190l438 1555h400v143z" />
    <glyph glyph-name="lessequal" unicode="&#x2264;" horiz-adv-x="1024" 
d="M955 1253l-887 -403v-133l887 -398v146l-723 321l723 320v147zM955 258h-887v-143h887v143z" />
    <glyph glyph-name="greaterequal" unicode="&#x2265;" horiz-adv-x="1024" 
d="M68 319l887 398v133l-887 403v-147l723 -320l-723 -321v-146zM68 115h887v143h-887v-143z" />
    <glyph glyph-name="lozenge" unicode="&#x25ca;" horiz-adv-x="1365" 
d="M683 1419l-532 -736l532 -736l531 736zM683 1134l328 -451l-328 -450l-328 450z" />
    <glyph glyph-name="glyph4" 
 />
    <glyph glyph-name="glyph5" 
 />
    <glyph glyph-name="glyph233" 
 />
    <glyph glyph-name="glyph234" 
 />
    <glyph glyph-name="glyph226" 
 />
    <glyph glyph-name="glyph227" 
 />
    <glyph glyph-name="glyph228" 
 />
    <glyph glyph-name="glyph229" 
 />
    <glyph glyph-name="glyph235" 
 />
    <glyph glyph-name="glyph240" 
 />
    <glyph glyph-name="glyph236" 
 />
    <glyph glyph-name="glyph237" 
 />
    <glyph glyph-name="glyph243" 
 />
    <glyph glyph-name="glyph230" 
 />
    <glyph glyph-name="glyph231" 
 />
    <glyph glyph-name="glyph242" 
 />
    <glyph glyph-name="ch748" 
 />
    <glyph glyph-name="glyph239" 
 />
    <glyph glyph-name="glyph244" 
 />
    <glyph glyph-name="glyph241" 
 />
    <glyph glyph-name="ch752" 
 />
    <glyph glyph-name="glyph232" 
 />
    <glyph glyph-name="glyph238" 
 />
    <glyph glyph-name="Edotaccent" horiz-adv-x="987" 
d="M884 1223v142h-707v-1365h707v142h-554v534h539v142h-539v405h554zM530 1741c-61 0 -109 -48 -109 -108c0 -61 49 -111 110 -111s109 49 109 110c0 64 -47 110 -110 109z" />
    <glyph glyph-name="edotaccent" horiz-adv-x="986" 
d="M902 395v26c0 131 -34 237 -103 318c-73 87 -173 131 -302 131s-230 -44 -305 -131c-71 -82 -107 -188 -107 -319c0 -119 32 -218 95 -297c80 -99 188 -148 324 -148c111 0 206 35 285 105c36 32 71 78 105 137l-123 69c-37 -61 -72 -104 -106 -130
c-43 -33 -95 -49 -156 -49c-49 0 -95 12 -136 37c-84 50 -129 134 -134 251h663zM748 518h-500c11 64 40 117 86 158s101 62 165 62c83 0 150 -34 200 -101c23 -31 40 -71 49 -119zM514 1250c-57 0 -104 -46 -104 -103c0 -59 46 -106 105 -106s104 46 104 105
s-46 104 -105 104z" />
    <glyph glyph-name="gcommaaccent" horiz-adv-x="1075" 
d="M844 -275c-74 -101 -197 -150 -369 -149l-149 1l10 142l141 -11c10 -1 20 -1 29 -1c67 0 127 19 178 56c71 51 106 128 106 231v104c-71 -81 -171 -121 -300 -121c-119 0 -218 46 -299 138c-71 81 -106 183 -106 308c0 126 37 231 110 316c77 89 177 133 302 133
c127 0 225 -40 293 -121v100h146v-832c0 -113 -31 -211 -92 -294zM513 740c-91 1 -165 -37 -220 -114c-39 -55 -59 -122 -59 -201c0 -87 24 -161 72 -220c51 -64 120 -96 205 -96c90 0 163 35 220 104c44 54 66 124 66 210c0 89 -25 163 -74 222c-52 63 -122 94 -210 95z
M595 1000l96 325l-104 32l-134 -314z" />
    <glyph glyph-name="Kcommaaccent" horiz-adv-x="1165" 
d="M330 779v586h-153v-1365h153v588l39 38l559 -626h209l-661 729l640 636h-204zM549 -109l-110 -327l104 -34l161 312z" />
    <glyph glyph-name="Lcommaaccent" horiz-adv-x="733" 
d="M330 1365h-153v-1365h698v142h-545v1223zM384 -109l-110 -327l104 -34l161 312z" />
    <glyph glyph-name="lcommaaccent" horiz-adv-x="425" 
d="M285 1494h-146v-1494h146v1494zM149 -109l-97 -324l104 -33l134 314z" />
    <glyph glyph-name="Ncommaaccent" horiz-adv-x="1571" 
d="M177 0h153v1052l1064 -1114v1427h-153v-1057l-1064 1114v-1422zM711 -109l-110 -327l104 -34l161 312z" />
    <glyph glyph-name="ncommaaccent" horiz-adv-x="960" 
d="M139 851v-851h146v425c0 95 12 167 35 214c33 67 91 100 176 100c71 0 121 -24 150 -71c19 -31 28 -86 28 -165v-503h146v528c0 101 -16 177 -48 226c-51 78 -132 117 -243 117c-97 0 -178 -41 -244 -123v103h-146zM413 -109l-97 -324l104 -33l134 314z" />
    <glyph glyph-name="glyph172" horiz-adv-x="1161" 
 />
    <glyph glyph-name="Ohungarumlaut" unicode="&#xd5;" horiz-adv-x="1626" 
d="M814 1388c-189 -2 -352 -67 -487 -195c-150 -141 -225 -309 -225 -503c0 -132 31 -252 92 -360c62 -108 148 -194 259 -259c111 -64 229 -96 353 -96c133 0 255 33 368 100c109 64 194 150 256 257s93 224 93 349c0 128 -32 246 -97 354c-64 109 -150 195 -259 258
c-111 65 -228 96 -353 95zM813 1245c152 -1 281 -54 386 -157c113 -111 170 -247 170 -407c0 -97 -23 -188 -69 -273c-49 -89 -117 -160 -206 -212s-184 -78 -286 -78c-157 0 -288 56 -395 169c-105 111 -157 245 -157 402c0 135 45 256 136 361c113 131 253 196 421 195z
M966 1732l-130 74l-242 -265l73 -57zM1308 1732l-131 74l-242 -265l73 -57z" />
    <glyph glyph-name="ohungarumlaut" unicode="&#xf5;" horiz-adv-x="1068" 
d="M534 870c-122 -1 -225 -41 -309 -121c-93 -89 -140 -195 -140 -319c0 -79 17 -152 52 -218c39 -73 93 -131 163 -174c71 -42 148 -63 231 -63c118 0 219 37 303 112c99 88 149 200 149 336c0 117 -38 217 -115 301c-90 99 -201 147 -334 146zM533 738
c91 -1 163 -31 218 -90s83 -135 83 -226c0 -82 -22 -150 -66 -205c-59 -73 -139 -110 -238 -110c-90 0 -162 31 -217 94c-53 59 -79 135 -79 226c0 77 22 144 67 201c58 74 135 111 232 110zM700 1280l-131 63l-216 -299l75 -48zM973 1280l-131 63l-216 -299l75 -48z" />
    <glyph glyph-name="Rcommaaccent" horiz-adv-x="1029" 
d="M533 611c105 9 188 47 250 114s93 152 93 257c0 138 -50 241 -151 309c-73 49 -182 74 -327 74h-221v-1365h153v599h39l412 -599h186zM330 733v490h91c203 0 305 -80 305 -241c0 -166 -100 -249 -301 -249h-95zM469 -109l-110 -327l104 -34l161 312z" />
    <glyph glyph-name="rcommaaccent" horiz-adv-x="604" 
d="M375 712l69 20c45 0 78 -19 100 -57l133 42c-39 97 -106 145 -200 145c-52 0 -85 -4 -98 -12c-46 -27 -77 -51 -94 -71v72h-146v-851h146v388c0 135 8 217 23 245c36 67 81 100 134 100c-20 0 -42 -7 -67 -21zM155 -109l-97 -324l104 -33l134 314z" />
    <glyph glyph-name="Uhungarumlaut" unicode="&#xdb;" horiz-adv-x="1328" 
d="M330 1365h-153v-878c0 -191 63 -331 189 -419c89 -62 188 -93 297 -93c169 0 301 63 398 189c59 77 89 185 89 323v878h-153v-836c0 -83 -5 -144 -14 -182c-15 -63 -47 -113 -95 -151c-66 -52 -141 -78 -225 -78c-55 0 -109 13 -162 39c-56 27 -98 64 -125 109
c-31 51 -46 139 -46 263v836zM804 1732l-130 74l-242 -265l73 -57zM1146 1732l-131 74l-242 -265l73 -57z" />
    <glyph glyph-name="uhungarumlaut" unicode="&#xfb;" horiz-adv-x="953" 
d="M816 2v851h-146v-425c0 -135 -13 -215 -40 -240c-51 -49 -108 -74 -171 -74c-71 0 -121 24 -150 71c-19 31 -28 86 -28 165v503h-146v-528c0 -101 16 -177 48 -226c51 -78 132 -117 243 -117c60 0 101 6 124 17c59 29 99 55 120 76v-73h146zM629 1280l-131 63l-216 -299
l75 -48zM902 1280l-131 63l-216 -299l75 -48z" />
    <glyph glyph-name="kcommaaccent" horiz-adv-x="862" 
d="M285 1494h-146v-1494h146v350l36 37l344 -387h191l-433 489l364 362h-194l-308 -314v957zM398 -109l-97 -324l104 -33l134 314z" />
    <glyph glyph-name="Zdotaccent" unicode="&#xaf;" horiz-adv-x="1094" 
d="M301 142l745 1223h-902v-142h649l-745 -1223h979v142h-726zM581 1741c-61 0 -109 -48 -109 -108c0 -61 49 -111 110 -111s109 49 109 110c0 64 -47 110 -110 109z" />
    <glyph glyph-name="Zdotaccent" unicode="&#x2c9;" horiz-adv-x="1094" 
d="M301 142l745 1223h-902v-142h649l-745 -1223h979v142h-726zM581 1741c-61 0 -109 -48 -109 -108c0 -61 49 -111 110 -111s109 49 109 110c0 64 -47 110 -110 109z" />
    <glyph glyph-name="zdotaccent" unicode="&#xbf;" horiz-adv-x="942" 
d="M310 135l612 716h-792v-135h501l-615 -716h880v135h-586zM510 1250c-57 0 -104 -46 -104 -103c0 -59 46 -106 105 -106s104 46 104 105s-46 104 -105 104z" />
    <glyph glyph-name="Gcommaaccent" horiz-adv-x="1552" 
d="M560 705v-142h725c-9 -133 -59 -240 -148 -322s-200 -123 -333 -123c-138 0 -262 51 -373 153c-117 109 -176 244 -176 406c0 104 25 199 75 286c51 87 119 155 205 206c87 51 180 76 280 76c126 0 237 -39 334 -117c39 -31 82 -78 129 -139l112 102
c-59 71 -112 123 -157 158c-121 93 -261 139 -418 139c-119 0 -231 -28 -336 -83c-118 -62 -211 -149 -278 -260s-100 -233 -100 -366c0 -116 27 -225 81 -327c61 -116 147 -208 258 -276c111 -67 232 -101 362 -101c147 0 280 42 398 127c123 88 199 202 230 343
c13 58 19 145 19 260h-889zM743 -109l-110 -327l104 -34l161 312z" />
    <glyph glyph-name="glyph245" 
 />
    <glyph glyph-name="glyph246" 
 />
    <glyph glyph-name="glyph247" 
 />
    <glyph glyph-name="glyph248" 
 />
    <glyph glyph-name="glyph249" 
 />
    <glyph glyph-name="glyph250" 
 />
    <glyph glyph-name="glyph251" 
 />
    <glyph glyph-name="glyph252" 
 />
    <glyph glyph-name="glyph253" 
 />
    <glyph glyph-name="glyph254" 
 />
    <glyph glyph-name="glyph255" 
 />
    <glyph glyph-name="glyph256" 
 />
    <glyph glyph-name="glyph257" 
 />
    <glyph glyph-name="nbspace" unicode="&#xa0;" 
 />
    <glyph glyph-name="sfthyphen" unicode="&#xad;" horiz-adv-x="371" 
d="M0 502v-131h371v131h-371z" />
    <glyph glyph-name="sfthyphen" unicode="&#x2212;" horiz-adv-x="371" 
d="M0 502v-131h371v131h-371z" />
    <glyph glyph-name="Tcommaaccent" unicode="&#xde;" horiz-adv-x="870" 
d="M510 1223h332v142h-815v-142h330v-1223h153v1223zM367 -109l-110 -327l104 -34l161 312z" />
    <glyph glyph-name="tcommaaccent" unicode="&#xfe;" horiz-adv-x="439" 
d="M376 716h220v135h-220v305h-146v-305h-229v-135h229v-716h146v716zM152 -109l-97 -324l104 -33l134 314z" />
    <glyph glyph-name="glyph288" horiz-adv-x="1024" 
d="M307 1037c19 60 48 90 87 90c17 0 53 -14 108 -43s95 -43 118 -43c83 0 143 49 181 148l-85 66c-29 -58 -61 -87 -96 -87c-12 0 -45 14 -99 42s-95 42 -124 42c-81 0 -140 -49 -175 -146z" />
    <glyph glyph-name="glyph289" horiz-adv-x="1024" 
d="M239 1687v-127h601v127h-601z" />
    <glyph glyph-name="glyph290" horiz-adv-x="1024" 
d="M639 1732l-130 74l-242 -265l73 -57zM981 1732l-131 74l-242 -265l73 -57z" />
    <glyph glyph-name="glyph291" horiz-adv-x="1024" 
d="M455 -109l-97 -324l104 -33l134 314z" />
    <glyph glyph-name="glyph292" horiz-adv-x="1024" 
d="M237 1201v-123h550v123h-550z" />
    <glyph glyph-name="glyph293" horiz-adv-x="1024" 
d="M702 1501l-97 -325l104 -32l134 314z" />
    <glyph glyph-name="glyph294" horiz-adv-x="1024" 
d="M511 1835c-52 0 -96 -18 -132 -53c-35 -35 -53 -78 -53 -130c0 -53 18 -98 53 -134c36 -36 80 -54 133 -54c52 0 96 18 131 54c36 36 54 80 54 132c0 53 -18 98 -53 133s-80 53 -133 52zM512 1735c48 0 85 -37 85 -85s-37 -86 -85 -86s-86 39 -86 87c0 47 39 84 86 84z
" />
    <glyph glyph-name="glyph295" horiz-adv-x="1024" 
d="M466 -109l-110 -327l104 -34l161 312z" />
    <glyph glyph-name="glyph296" horiz-adv-x="1024" 
d="M799 1721l-106 83l-179 -154l-180 154l-108 -83l288 -244z" />
    <glyph glyph-name="glyph297" horiz-adv-x="1024" 
d="M731 -162l-146 66l-183 -278l103 -53z" />
    <glyph glyph-name="glyph298" horiz-adv-x="1024" 
d="M229 1077l103 -81l179 170l180 -169l105 80l-285 266z" />
    <glyph glyph-name="glyph299" horiz-adv-x="1024" 
d="M230 1764c6 -69 25 -124 58 -165c54 -67 129 -101 225 -101c93 0 166 34 221 101c34 42 55 97 63 165h-130c-22 -91 -74 -136 -155 -136c-79 0 -129 45 -151 136h-131z" />
    <glyph glyph-name="glyph300" horiz-adv-x="1024" 
d="M511 1361c-52 0 -96 -18 -132 -53c-35 -35 -53 -78 -53 -130c0 -54 18 -99 53 -135c35 -35 80 -53 133 -53s97 18 132 53c35 36 53 80 53 133s-18 98 -53 133s-80 53 -133 52zM512 1261c48 0 85 -37 85 -85s-37 -86 -85 -86s-86 39 -86 87c0 47 39 84 86 84z" />
    <glyph glyph-name="glyph301" horiz-adv-x="1024" 
d="M512 1741c-61 0 -109 -48 -109 -108c0 -61 49 -111 110 -111s109 49 109 110c0 64 -47 110 -110 109z" />
    <glyph glyph-name="glyph302" horiz-adv-x="1024" 
d="M816 1715l-137 91l-245 -265l88 -65z" />
    <glyph glyph-name="glyph303" horiz-adv-x="1024" 
d="M317 1738c-57 0 -104 -46 -104 -103c0 -59 46 -106 105 -106s104 46 104 105s-46 104 -105 104zM706 1738c-57 0 -104 -46 -104 -103c0 -59 46 -106 105 -106c57 0 104 48 104 105c0 59 -46 104 -105 104z" />
    <glyph glyph-name="glyph304" horiz-adv-x="1024" 
d="M298 1528c28 59 56 88 83 88c20 0 59 -14 118 -42s103 -42 130 -42c77 0 140 49 187 148l-87 66c-29 -58 -61 -87 -94 -87c-19 0 -57 14 -115 42c-57 28 -100 42 -128 42c-73 0 -133 -49 -182 -146z" />
    <glyph glyph-name="glyph305" horiz-adv-x="1024" 
d="M728 1372l-110 -327l104 -34l161 311z" />
    <glyph glyph-name="glyph306" horiz-adv-x="1024" 
d="M535 1000l96 325l-104 32l-134 -314z" />
    <glyph glyph-name="glyph307" horiz-adv-x="1024" 
d="M225 1561l106 -84l179 155l180 -155l108 83l-288 244z" />
    <glyph glyph-name="glyph308" 
 />
    </font>
</defs>
</svg>
